<svg width="21" height="16" viewBox="0 0 21 16" fill="none" xmlns="http://www.w3.org/2000/svg">
<path d="M17.4308 1.4629C16.1561 0.877995 14.7892 0.447065 13.3599 0.200254C13.3339 0.195491 13.3079 0.207395 13.2945 0.231203C13.1187 0.543882 12.9239 0.951798 12.7876 1.27242C11.2503 1.04228 9.72099 1.04228 8.21527 1.27242C8.07887 0.944671 7.87707 0.543882 7.70048 0.231203C7.68707 0.208189 7.66107 0.196285 7.63504 0.200254C6.20659 0.446277 4.83963 0.877206 3.56411 1.4629C3.55307 1.46766 3.54361 1.4756 3.53732 1.48591C0.944493 5.35954 0.234208 9.13797 0.58265 12.8695C0.584227 12.8878 0.594475 12.9053 0.608665 12.9164C2.31934 14.1726 3.97642 14.9353 5.60273 15.4408C5.62876 15.4488 5.65634 15.4393 5.6729 15.4178C6.05761 14.8925 6.40054 14.3385 6.69456 13.756C6.71192 13.7219 6.69535 13.6814 6.65989 13.6679C6.11594 13.4616 5.598 13.21 5.09977 12.9243C5.06037 12.9013 5.05721 12.8449 5.09347 12.8179C5.19831 12.7394 5.30318 12.6576 5.4033 12.5751C5.42141 12.56 5.44665 12.5568 5.46794 12.5664C8.74107 14.0608 12.2846 14.0608 15.5191 12.5664C15.5404 12.5561 15.5657 12.5592 15.5846 12.5743C15.6847 12.6568 15.7895 12.7394 15.8952 12.8179C15.9314 12.8449 15.9291 12.9013 15.8897 12.9243C15.3914 13.2155 14.8735 13.4616 14.3288 13.6671C14.2933 13.6806 14.2775 13.7219 14.2949 13.756C14.5952 14.3377 14.9381 14.8917 15.3157 15.417C15.3315 15.4393 15.3599 15.4488 15.3859 15.4408C17.0201 14.9353 18.6772 14.1726 20.3879 12.9164C20.4028 12.9053 20.4123 12.8886 20.4139 12.8703C20.8309 8.55622 19.7154 4.80878 17.4568 1.4867C17.4513 1.4756 17.4419 1.46766 17.4308 1.4629ZM7.18335 10.5974C6.19792 10.5974 5.38594 9.6927 5.38594 8.58163C5.38594 7.47056 6.18217 6.56585 7.18335 6.56585C8.19239 6.56585 8.99651 7.4785 8.98073 8.58163C8.98073 9.6927 8.18451 10.5974 7.18335 10.5974ZM13.829 10.5974C12.8435 10.5974 12.0316 9.6927 12.0316 8.58163C12.0316 7.47056 12.8278 6.56585 13.829 6.56585C14.838 6.56585 15.6421 7.4785 15.6264 8.58163C15.6264 9.6927 14.838 10.5974 13.829 10.5974Z" fill="white" fill-opacity="0.81"/>
</svg>
