<svg width="21" height="20" viewBox="0 0 21 20" fill="none" xmlns="http://www.w3.org/2000/svg">
<g clip-path="url(#clip0_118_656)">
<path d="M10.5 1.80078C13.1719 1.80078 13.4883 1.8125 14.5391 1.85937C15.5156 1.90234 16.043 2.06641 16.3945 2.20313C16.8594 2.38281 17.1953 2.60156 17.543 2.94922C17.8945 3.30078 18.1094 3.63281 18.2891 4.09766C18.4258 4.44922 18.5898 4.98047 18.6328 5.95312C18.6797 7.00781 18.6914 7.32422 18.6914 9.99219C18.6914 12.6641 18.6797 12.9805 18.6328 14.0313C18.5898 15.0078 18.4258 15.5352 18.2891 15.8867C18.1094 16.3516 17.8906 16.6875 17.543 17.0352C17.1914 17.3867 16.8594 17.6016 16.3945 17.7813C16.043 17.918 15.5117 18.082 14.5391 18.125C13.4844 18.1719 13.168 18.1836 10.5 18.1836C7.82813 18.1836 7.51172 18.1719 6.46094 18.125C5.48438 18.082 4.95703 17.918 4.60547 17.7813C4.14063 17.6016 3.80469 17.3828 3.45703 17.0352C3.10547 16.6836 2.89063 16.3516 2.71094 15.8867C2.57422 15.5352 2.41016 15.0039 2.36719 14.0313C2.32031 12.9766 2.30859 12.6602 2.30859 9.99219C2.30859 7.32031 2.32031 7.00391 2.36719 5.95312C2.41016 4.97656 2.57422 4.44922 2.71094 4.09766C2.89063 3.63281 3.10938 3.29688 3.45703 2.94922C3.80859 2.59766 4.14063 2.38281 4.60547 2.20313C4.95703 2.06641 5.48828 1.90234 6.46094 1.85937C7.51172 1.8125 7.82813 1.80078 10.5 1.80078ZM10.5 0C7.78516 0 7.44531 0.0117187 6.37891 0.0585938C5.31641 0.105469 4.58594 0.277344 3.95313 0.523438C3.29297 0.78125 2.73438 1.12109 2.17969 1.67969C1.62109 2.23438 1.28125 2.79297 1.02344 3.44922C0.777344 4.08594 0.605469 4.8125 0.558594 5.875C0.511719 6.94531 0.5 7.28516 0.5 10C0.5 12.7148 0.511719 13.0547 0.558594 14.1211C0.605469 15.1836 0.777344 15.9141 1.02344 16.5469C1.28125 17.207 1.62109 17.7656 2.17969 18.3203C2.73438 18.875 3.29297 19.2188 3.94922 19.4727C4.58594 19.7188 5.3125 19.8906 6.375 19.9375C7.44141 19.9844 7.78125 19.9961 10.4961 19.9961C13.2109 19.9961 13.5508 19.9844 14.6172 19.9375C15.6797 19.8906 16.4102 19.7188 17.043 19.4727C17.6992 19.2188 18.2578 18.875 18.8125 18.3203C19.3672 17.7656 19.7109 17.207 19.9648 16.5508C20.2109 15.9141 20.3828 15.1875 20.4297 14.125C20.4766 13.0586 20.4883 12.7188 20.4883 10.0039C20.4883 7.28906 20.4766 6.94922 20.4297 5.88281C20.3828 4.82031 20.2109 4.08984 19.9648 3.45703C19.7188 2.79297 19.3789 2.23438 18.8203 1.67969C18.2656 1.125 17.707 0.78125 17.0508 0.527344C16.4141 0.28125 15.6875 0.109375 14.625 0.0625C13.5547 0.0117188 13.2148 0 10.5 0Z" fill="white" fill-opacity="0.81"/>
<path d="M10.5 4.86328C7.66406 4.86328 5.36328 7.16406 5.36328 10C5.36328 12.8359 7.66406 15.1367 10.5 15.1367C13.3359 15.1367 15.6367 12.8359 15.6367 10C15.6367 7.16406 13.3359 4.86328 10.5 4.86328ZM10.5 13.332C8.66016 13.332 7.16797 11.8398 7.16797 10C7.16797 8.16016 8.66016 6.66797 10.5 6.66797C12.3398 6.66797 13.832 8.16016 13.832 10C13.832 11.8398 12.3398 13.332 10.5 13.332Z" fill="white" fill-opacity="0.81"/>
<path d="M17.0391 4.66016C17.0391 5.32422 16.5 5.85938 15.8398 5.85938C15.1758 5.85938 14.6406 5.32031 14.6406 4.66016C14.6406 3.99609 15.1797 3.46094 15.8398 3.46094C16.5 3.46094 17.0391 4 17.0391 4.66016Z" fill="white" fill-opacity="0.81"/>
</g>
<defs>
<clipPath id="clip0_118_656">
<rect width="20" height="20" fill="white" transform="translate(0.5)"/>
</clipPath>
</defs>
</svg>
