<svg width="193" height="58" viewBox="0 0 193 58" fill="none" xmlns="http://www.w3.org/2000/svg">
<path d="M1.6376 34.8816C1.6376 27.8571 6.07636 23.2029 12.8422 23.2029C18.8755 23.2029 23.2712 26.7797 23.7021 32.813H17.281C17.1948 29.9688 15.4279 28.6328 12.8422 28.6328C9.8256 28.6328 8.05872 30.9168 8.05872 34.8816C8.05872 38.8894 9.8256 41.2165 12.8422 41.2165C15.3848 41.2165 17.1517 40.0529 17.281 37.4241H23.7021C23.1419 43.285 18.8324 46.6464 12.8422 46.6464C6.11946 46.6464 1.6376 41.9491 1.6376 34.8816ZM68.693 33.5025C68.693 30.3135 67.0123 28.9345 64.4267 28.9345C62.0134 28.9345 60.2034 30.7014 60.2034 33.2009V46H53.8253V23.9355H60.2034V27.2107C61.7979 24.6681 64.4698 23.2029 66.9692 23.2029C71.6666 23.2029 75.028 26.3919 75.028 32.1666V46H68.693V33.5025ZM93.9897 33.5025C93.9897 30.3135 92.309 28.9345 89.7233 28.9345C87.31 28.9345 85.5 30.7014 85.5 33.2009V46H79.122V23.9355H85.5V27.2107C87.0945 24.6681 89.7664 23.2029 92.2659 23.2029C96.9632 23.2029 100.325 26.3919 100.325 32.1666V46H93.9897V33.5025ZM103.945 34.8816C103.945 27.8571 108.168 23.5045 114.891 23.5045C121.527 23.5045 126.311 28.3312 126.311 35.0539V36.4761H110.452C110.84 39.7082 112.477 41.432 115.192 41.432C117.519 41.432 118.942 40.3977 119.286 38.5877H126.009C125.147 43.8022 121.355 46.3448 115.149 46.3448C108.254 46.3448 103.945 41.9491 103.945 34.8816ZM114.934 28.0726C112.607 28.0726 111.098 29.3654 110.581 32.2959H119.502C119.243 29.7102 117.476 28.0726 114.934 28.0726ZM129.543 34.8816C129.543 27.8571 133.982 23.2029 140.747 23.2029C146.781 23.2029 151.176 26.7797 151.607 32.813H145.186C145.1 29.9688 143.333 28.6328 140.747 28.6328C137.731 28.6328 135.964 30.9168 135.964 34.8816C135.964 38.8894 137.731 41.2165 140.747 41.2165C143.29 41.2165 145.057 40.0529 145.186 37.4241H151.607C151.047 43.285 146.738 46.6464 140.747 46.6464C134.025 46.6464 129.543 41.9491 129.543 34.8816ZM166.561 40.6563V46H164.105C159.709 46 156.736 43.6729 156.736 39.0186V29.0207H153.245V23.9355H156.736V18.2039H163.071V23.9355H166.561V29.0207H163.071V38.1568C163.071 40.0098 163.76 40.6563 165.053 40.6563H166.561ZM168.802 34.8816C168.802 27.8571 173.284 23.2029 180.05 23.2029C186.73 23.2029 191.255 27.8571 191.255 34.8816C191.255 41.9491 186.73 46.6464 180.05 46.6464C173.284 46.6464 168.802 41.9491 168.802 34.8816ZM184.79 34.8816C184.79 30.9168 183.023 28.6328 180.05 28.6328C177.033 28.6328 175.223 30.9168 175.223 34.8816C175.223 38.8894 177.033 41.2165 180.05 41.2165C183.023 41.2165 184.79 38.8894 184.79 34.8816Z" fill="white"/>
<g clip-path="url(#clip0_235_446)">
<path d="M38.7773 22.6801C39.217 22.3215 39.8483 22.3215 40.288 22.6801L41.2361 23.4534C41.5345 23.6967 41.9318 23.7814 42.3034 23.681L43.4813 23.3626C44.0284 23.2147 44.604 23.4713 44.8597 23.977L45.4163 25.0777C45.5896 25.4202 45.9167 25.6587 46.2958 25.7188L47.5064 25.9105C48.0642 25.9989 48.484 26.4657 48.513 27.0297L48.5767 28.2715C48.5963 28.6533 48.7974 29.0027 49.1177 29.2115L50.1535 29.8866C50.6251 30.1941 50.8182 30.7891 50.6169 31.315L50.1714 32.4794C50.035 32.8357 50.077 33.2356 50.2841 33.5558L50.9605 34.6012C51.2661 35.0736 51.2009 35.6952 50.8037 36.0939L49.9277 36.9734C49.6583 37.2439 49.5342 37.6267 49.594 38.0038L49.7889 39.2347C49.877 39.7915 49.564 40.3342 49.0379 40.5369L47.8893 40.9791C47.5319 41.1168 47.262 41.4174 47.1636 41.7877L46.8456 42.985C46.7004 43.5319 46.1916 43.9019 45.6267 43.8717L44.4065 43.8064C44.0225 43.7859 43.6521 43.9513 43.4112 44.2509L42.6417 45.208C42.2863 45.6501 41.6691 45.7814 41.1644 45.5223L40.0785 44.9648C39.7358 44.7889 39.3295 44.7889 38.9868 44.9648L37.9008 45.5223C37.3962 45.7814 36.779 45.6501 36.4236 45.208L35.6541 44.2509C35.4132 43.9513 35.0428 43.7859 34.6588 43.8064L33.4387 43.8717C32.8737 43.9019 32.3649 43.5319 32.2197 42.985L31.9016 41.7877C31.8033 41.4174 31.5335 41.1168 31.176 40.9791L30.0274 40.5369C29.5013 40.3342 29.1883 39.7915 29.2764 39.2347L29.4713 38.0038C29.531 37.6267 29.407 37.2439 29.1376 36.9734L28.2615 36.0939C27.8644 35.6952 27.7992 35.0736 28.1048 34.6012L28.7812 33.5558C28.9884 33.2356 29.0303 32.8357 28.8939 32.4794L28.4483 31.315C28.2471 30.7891 28.4402 30.1941 28.9119 29.8866L29.9476 29.2115C30.2679 29.0027 30.469 28.6533 30.4886 28.2715L30.5523 27.0297C30.5812 26.4657 31.0011 25.9989 31.5589 25.9105L32.7694 25.7188C33.1486 25.6587 33.4757 25.4202 33.649 25.0777L34.2056 23.977C34.4613 23.4713 35.037 23.2147 35.584 23.3626L36.7619 23.681C37.1335 23.7814 37.5308 23.6967 37.8291 23.4534L38.7773 22.6801Z" fill="#5A52FF"/>
</g>
<defs>
<clipPath id="clip0_235_446">
<rect width="23.9032" height="23.9032" fill="white" transform="translate(27.5811 22.0645)"/>
</clipPath>
</defs>
</svg>
