<svg width="28" height="28" viewBox="0 0 28 28" fill="none" xmlns="http://www.w3.org/2000/svg">
<rect width="28" height="28" rx="14" fill="black"/>
<path d="M14.0022 7.11374C16.2467 7.11374 16.5102 7.12375 17.3973 7.16377C18.2178 7.20046 18.6613 7.3372 18.9581 7.45392C19.3517 7.60734 19.6318 7.78743 19.9253 8.08092C20.2188 8.37441 20.4022 8.65456 20.5523 9.0481C20.6657 9.34492 20.8058 9.78849 20.8425 10.6089C20.8825 11.4961 20.8925 11.7595 20.8925 14.0041C20.8925 16.2486 20.8825 16.512 20.8425 17.3992C20.8058 18.2196 20.6691 18.6632 20.5523 18.96C20.3989 19.3536 20.2188 19.6337 19.9253 19.9272C19.6318 20.2207 19.3517 20.4041 18.9581 20.5542C18.6613 20.6676 18.2178 20.8077 17.3973 20.8443C16.5102 20.8844 16.2467 20.8944 14.0022 20.8944C11.7577 20.8944 11.4942 20.8844 10.6071 20.8443C9.78662 20.8077 9.34306 20.6709 9.04623 20.5542C8.65269 20.4008 8.37254 20.2207 8.07905 19.9272C7.78556 19.6337 7.60213 19.3536 7.45205 18.96C7.33866 18.6632 7.19859 18.2196 7.1619 17.3992C7.12188 16.512 7.11187 16.2486 7.11187 14.0041C7.11187 11.7595 7.12188 11.4961 7.1619 10.6089C7.19859 9.78849 7.33533 9.34492 7.45205 9.0481C7.60547 8.65456 7.78556 8.37441 8.07905 8.08092C8.37254 7.78743 8.65269 7.604 9.04623 7.45392C9.34306 7.34053 9.78662 7.20046 10.6071 7.16377C11.4942 7.12041 11.761 7.11374 14.0022 7.11374ZM14.0022 5.59961C11.721 5.59961 11.4342 5.60961 10.537 5.64964C9.64322 5.68966 9.03289 5.83307 8.49928 6.03984C7.94565 6.25329 7.47874 6.54344 7.01182 7.01036C6.54491 7.47727 6.25809 7.94752 6.04131 8.49781C5.83453 9.03142 5.69112 9.64175 5.6511 10.5389C5.61108 11.4327 5.60107 11.7195 5.60107 14.0007C5.60107 16.2819 5.61108 16.5687 5.6511 17.4659C5.69112 18.3597 5.83453 18.97 6.04131 19.507C6.25475 20.0606 6.54491 20.5275 7.01182 20.9944C7.47874 21.4613 7.94898 21.7482 8.49928 21.9649C9.03289 22.1717 9.64322 22.3151 10.5404 22.3551C11.4375 22.3952 11.721 22.4052 14.0055 22.4052C16.2901 22.4052 16.5736 22.3952 17.4707 22.3551C18.3645 22.3151 18.9748 22.1717 19.5118 21.9649C20.0654 21.7515 20.5323 21.4613 20.9992 20.9944C21.4661 20.5275 21.753 20.0573 21.9697 19.507C22.1765 18.9734 22.3199 18.363 22.3599 17.4659C22.4 16.5687 22.41 16.2853 22.41 14.0007C22.41 11.7162 22.4 11.4327 22.3599 10.5356C22.3199 9.64175 22.1765 9.03142 21.9697 8.49447C21.7563 7.94085 21.4661 7.47393 20.9992 7.00702C20.5323 6.54011 20.0621 6.25329 19.5118 6.03651C18.9782 5.82973 18.3678 5.68632 17.4707 5.6463C16.5702 5.60961 16.2834 5.59961 14.0022 5.59961Z" fill="white"/>
<path d="M14.0022 7.11374C16.2467 7.11374 16.5102 7.12375 17.3973 7.16377C18.2178 7.20046 18.6613 7.3372 18.9581 7.45392C19.3517 7.60734 19.6318 7.78743 19.9253 8.08092C20.2188 8.37441 20.4022 8.65456 20.5523 9.0481C20.6657 9.34492 20.8058 9.78849 20.8425 10.6089C20.8825 11.4961 20.8925 11.7595 20.8925 14.0041C20.8925 16.2486 20.8825 16.512 20.8425 17.3992C20.8058 18.2196 20.6691 18.6632 20.5523 18.96C20.3989 19.3536 20.2188 19.6337 19.9253 19.9272C19.6318 20.2207 19.3517 20.4041 18.9581 20.5542C18.6613 20.6676 18.2178 20.8077 17.3973 20.8443C16.5102 20.8844 16.2467 20.8944 14.0022 20.8944C11.7577 20.8944 11.4942 20.8844 10.6071 20.8443C9.78662 20.8077 9.34306 20.6709 9.04623 20.5542C8.65269 20.4008 8.37254 20.2207 8.07905 19.9272C7.78556 19.6337 7.60213 19.3536 7.45205 18.96C7.33866 18.6632 7.19859 18.2196 7.1619 17.3992C7.12188 16.512 7.11187 16.2486 7.11187 14.0041C7.11187 11.7595 7.12188 11.4961 7.1619 10.6089C7.19859 9.78849 7.33533 9.34492 7.45205 9.0481C7.60547 8.65456 7.78556 8.37441 8.07905 8.08092C8.37254 7.78743 8.65269 7.604 9.04623 7.45392C9.34306 7.34053 9.78662 7.20046 10.6071 7.16377C11.4942 7.12041 11.761 7.11374 14.0022 7.11374Z" fill="white"/>
<path d="M14.0021 9.68848C11.6209 9.68848 9.68652 11.6195 9.68652 14.0041C9.68652 16.3887 11.6175 18.3197 14.0021 18.3197C16.3867 18.3197 18.3178 16.3887 18.3178 14.0041C18.3178 11.6195 16.3867 9.68848 14.0021 9.68848ZM14.0021 16.8022C12.4547 16.8022 11.2007 15.5482 11.2007 14.0008C11.2007 12.4533 12.4547 11.1993 14.0021 11.1993C15.5496 11.1993 16.8036 12.4533 16.8036 14.0008C16.8036 15.5482 15.5496 16.8022 14.0021 16.8022Z" fill="black"/>
<path d="M18.4882 10.5222C19.0444 10.5222 19.4954 10.0713 19.4954 9.51501C19.4954 8.95875 19.0444 8.50781 18.4882 8.50781C17.9319 8.50781 17.481 8.95875 17.481 9.51501C17.481 10.0713 17.9319 10.5222 18.4882 10.5222Z" fill="black"/>
</svg>
