<svg width="28" height="28" viewBox="0 0 28 28" fill="none" xmlns="http://www.w3.org/2000/svg">
<rect width="28" height="28" rx="14" fill="black"/>
<path d="M21.3011 18.4725C18.5673 17.1491 18.1316 15.1059 18.1122 14.9543C18.0887 14.7707 18.0621 14.6264 18.2646 14.4397C18.4599 14.2592 19.3264 13.7229 19.5668 13.5552C19.9642 13.2773 20.1392 12.9999 20.0102 12.6589C19.92 12.423 19.7003 12.3342 19.4689 12.3342C19.3959 12.3344 19.3232 12.3426 19.252 12.3585C18.8153 12.4532 18.3914 12.672 18.146 12.7311C18.1165 12.7387 18.0862 12.7428 18.0558 12.7433C17.925 12.7433 17.8754 12.6851 17.888 12.5277C17.9187 12.0505 17.9836 11.119 17.9083 10.249C17.805 9.05189 17.4189 8.45876 16.9611 7.93419C16.7396 7.6798 15.7112 6.58691 13.7266 6.58691C11.742 6.58691 10.715 7.6798 10.4949 7.93104C10.0357 8.45561 9.65005 9.04873 9.54766 10.2458C9.47234 11.1159 9.54 12.0468 9.56796 12.5245C9.57698 12.6743 9.53097 12.7401 9.40017 12.7401C9.36973 12.7396 9.33945 12.7355 9.30996 12.7279C9.06504 12.6688 8.64106 12.4501 8.20444 12.3554C8.13322 12.3394 8.06048 12.3312 7.98749 12.331C7.7552 12.331 7.53644 12.4212 7.44623 12.6558C7.31723 12.9968 7.49133 13.2742 7.89006 13.552C8.13047 13.7198 8.99693 14.2556 9.19224 14.4365C9.39431 14.6232 9.36815 14.7676 9.34469 14.9511C9.3253 15.105 8.88913 17.1482 6.15578 18.4693C5.99566 18.5469 5.72323 18.7111 6.20359 18.9763C6.95774 19.3931 7.45976 19.3484 7.84992 19.5996C8.18099 19.813 7.98523 20.2731 8.22609 20.439C8.52198 20.6434 9.39656 20.4246 10.5264 20.7976C11.4736 21.1098 12.0492 21.9916 13.7289 21.9916C15.4086 21.9916 16.0008 21.1057 16.9313 20.7976C18.0589 20.4246 18.9353 20.6434 19.2317 20.439C19.4721 20.2731 19.2768 19.813 19.6078 19.5996C19.998 19.3484 20.4996 19.3931 21.2542 18.9763C21.7336 18.7142 21.4612 18.5501 21.3011 18.4725Z" fill="white"/>
<path d="M22.4905 18.3164C22.3679 17.9827 22.1342 17.8041 21.8681 17.6561C21.818 17.6268 21.772 17.6033 21.7328 17.5853C21.6534 17.5443 21.5722 17.5046 21.4915 17.4626C20.662 17.0228 20.0143 16.4681 19.565 15.8104C19.4375 15.6253 19.3268 15.429 19.2344 15.2241C19.1961 15.1145 19.1979 15.0522 19.2254 14.9954C19.2527 14.9516 19.2888 14.914 19.3314 14.8849C19.4739 14.7906 19.621 14.695 19.7207 14.6305C19.8984 14.5155 20.0391 14.4244 20.1298 14.3599C20.4703 14.1217 20.7085 13.8687 20.8573 13.5859C20.9612 13.3905 21.0217 13.175 21.0349 12.9541C21.048 12.7332 21.0135 12.5121 20.9335 12.3058C20.708 11.7122 20.1474 11.3437 19.4681 11.3437C19.3248 11.3436 19.1819 11.3587 19.0418 11.3888C19.0044 11.3969 18.967 11.4055 18.9304 11.415C18.9367 11.009 18.9277 10.5805 18.8916 10.1588C18.7635 8.6762 18.2444 7.89905 17.7031 7.27931C17.3565 6.89095 16.9483 6.5624 16.4948 6.30685C15.6734 5.83776 14.742 5.59961 13.7267 5.59961C12.7114 5.59961 11.7845 5.83776 10.9622 6.30685C10.5076 6.56247 10.0985 6.89169 9.75161 7.28111C9.21035 7.90085 8.6912 8.67936 8.5631 10.1606C8.52702 10.5823 8.51799 11.0131 8.52386 11.4168C8.48732 11.4073 8.45034 11.3987 8.4129 11.3906C8.27282 11.3605 8.12994 11.3454 7.98666 11.3455C7.30693 11.3455 6.74538 11.714 6.52076 12.3076C6.44047 12.514 6.40556 12.7353 6.4184 12.9564C6.43124 13.1775 6.49153 13.3933 6.59518 13.589C6.74448 13.8718 6.98263 14.1249 7.32317 14.363C7.41338 14.4262 7.55456 14.5173 7.73227 14.6336C7.82834 14.6959 7.96862 14.787 8.10619 14.8781C8.15432 14.9092 8.19523 14.9503 8.22617 14.9985C8.25503 15.0576 8.25594 15.1212 8.21309 15.2385C8.12195 15.4392 8.01312 15.6313 7.88788 15.8127C7.44856 16.4554 6.8198 17.0003 6.01694 17.4365C5.5916 17.662 5.14957 17.8126 4.96284 18.3201C4.82211 18.703 4.91413 19.1387 5.27181 19.5059C5.40308 19.6429 5.55533 19.7582 5.72285 19.8473C6.07142 20.0389 6.44206 20.1871 6.82657 20.2889C6.90591 20.3093 6.98124 20.343 7.04938 20.3886C7.17974 20.5027 7.16124 20.6745 7.3349 20.9262C7.42207 21.0563 7.53283 21.1689 7.66146 21.2582C8.0259 21.5099 8.43545 21.5256 8.86936 21.5423C9.26132 21.5572 9.7056 21.5744 10.213 21.7417C10.4232 21.8112 10.6415 21.9456 10.8946 22.1025C11.5021 22.476 12.3339 22.987 13.7258 22.987C15.1177 22.987 15.9553 22.4733 16.5674 22.0985C16.8186 21.9442 17.0356 21.8112 17.2399 21.7435C17.7473 21.5757 18.1916 21.559 18.5836 21.5441C19.0175 21.5275 19.427 21.5117 19.7915 21.26C19.9438 21.1538 20.0707 21.0151 20.1631 20.854C20.2881 20.6416 20.2849 20.4932 20.4022 20.3895C20.4661 20.3461 20.5369 20.3138 20.6115 20.2938C21.0012 20.1918 21.3769 20.0421 21.7301 19.8482C21.9081 19.7527 22.0683 19.6273 22.2037 19.4774L22.2082 19.472C22.5438 19.113 22.6281 18.6899 22.4905 18.3164ZM21.2533 18.9813C20.4987 19.3981 19.9972 19.3534 19.607 19.6046C19.2755 19.818 19.4717 20.2781 19.2308 20.444C18.9349 20.6484 18.0604 20.4296 16.9305 20.8026C15.9986 21.1107 15.4041 21.9965 13.728 21.9965C12.052 21.9965 11.4715 21.1125 10.5243 20.8004C9.39664 20.4273 8.52025 20.6461 8.22391 20.4418C7.9835 20.2758 8.17881 19.8157 7.84774 19.6024C7.45713 19.3511 6.95557 19.3958 6.20141 18.9813C5.72105 18.7161 5.99348 18.5519 6.1536 18.4743C8.88695 17.1509 9.32311 15.1077 9.34251 14.9561C9.36596 14.7726 9.39212 14.6282 9.19006 14.4415C8.99475 14.2611 8.12829 13.7248 7.88788 13.557C7.49006 13.2791 7.31505 13.0018 7.44405 12.6608C7.53426 12.4249 7.75437 12.336 7.98531 12.336C8.0583 12.3362 8.13104 12.3444 8.20226 12.3604C8.63888 12.4551 9.06286 12.6738 9.30778 12.7329C9.33727 12.7405 9.36755 12.7446 9.39799 12.7451C9.52879 12.7451 9.5748 12.6793 9.56578 12.5295C9.53781 12.0518 9.47016 11.1209 9.54548 10.2508C9.64877 9.05373 10.0344 8.4606 10.4927 7.93604C10.7128 7.6839 11.747 6.59101 13.7249 6.59101C15.7027 6.59101 16.7397 7.67939 16.9598 7.93062C17.4185 8.45519 17.8046 9.04832 17.907 10.2454C17.9823 11.1155 17.9174 12.0469 17.8867 12.5241C17.8763 12.6815 17.9237 12.7397 18.0545 12.7397C18.0849 12.7392 18.1152 12.7351 18.1447 12.7275C18.3901 12.6684 18.8141 12.4497 19.2507 12.3549C19.3219 12.339 19.3946 12.3308 19.4676 12.3306C19.6999 12.3306 19.9187 12.4208 20.0089 12.6553C20.1379 12.9963 19.9638 13.2737 19.5655 13.5516C19.3251 13.7194 18.4586 14.2552 18.2633 14.4361C18.0608 14.6228 18.0874 14.7672 18.1109 14.9507C18.1303 15.1045 18.566 17.1478 21.2998 18.4689C21.4613 18.5496 21.7337 18.7138 21.2533 18.9813Z" fill="black"/>
</svg>
