<svg width="95" height="95" viewBox="0 0 95 95" fill="none" xmlns="http://www.w3.org/2000/svg">
<path d="M44.4975 2.44891C46.2452 1.02354 48.7541 1.02354 50.5017 2.44891L54.2698 5.52226C55.4559 6.48927 57.0348 6.82595 58.5116 6.42671L63.1932 5.16136C65.3673 4.57374 67.6549 5.59351 68.6714 7.60314L70.8834 11.9777C71.5722 13.3391 72.8723 14.2869 74.379 14.5256L79.1902 15.2878C81.4071 15.639 83.0757 17.4942 83.1907 19.7358L83.4439 24.6711C83.5218 26.1886 84.3212 27.5772 85.5942 28.407L89.7105 31.0901C91.5849 32.3121 92.3525 34.677 91.5526 36.7671L89.7818 41.395C89.2398 42.8108 89.4065 44.4001 90.2297 45.6729L92.9182 49.8274C94.1328 51.7051 93.8734 54.1756 92.295 55.7602L88.8133 59.2557C87.7426 60.3306 87.2496 61.852 87.4871 63.3507L88.2618 68.2427C88.6119 70.4557 87.3678 72.6127 85.2769 73.4183L80.7121 75.1758C79.2914 75.723 78.2189 76.9176 77.8279 78.3892L76.564 83.1477C75.9868 85.3213 73.9648 86.7919 71.7194 86.6718L66.8702 86.4124C65.344 86.3307 63.872 86.9881 62.9144 88.1789L59.8563 91.9827C58.4437 93.7398 55.9908 94.2618 53.9848 93.232L49.669 91.0161C48.3072 90.3174 46.6921 90.3174 45.3304 91.0161L41.0142 93.232C39.0087 94.2618 36.5557 93.7398 35.1431 91.9827L32.085 88.1789C31.1274 86.9881 29.6553 86.3307 28.1293 86.4124L23.2799 86.6718C21.0346 86.7919 19.0125 85.3213 18.4353 83.1477L17.1712 78.3892C16.7804 76.9176 15.708 75.723 14.2873 75.1758L9.72248 73.4183C7.63129 72.6127 6.38732 70.4557 6.73777 68.2427L7.51235 63.3507C7.74962 61.852 7.25676 60.3306 6.18606 59.2557L2.70415 55.7602C1.12595 54.1756 0.866578 51.7051 2.08134 49.8274L4.76937 45.6729C5.59288 44.4001 5.75937 42.8108 5.21758 41.395L3.44655 36.7671C2.64672 34.677 3.41423 32.3121 5.28897 31.0901L9.40532 28.407C10.6782 27.5772 11.4774 26.1886 11.5552 24.6711L11.8085 19.7358C11.9235 17.4942 13.592 15.639 15.809 15.2878L20.6203 14.5256C22.127 14.2869 23.4273 13.3391 24.1158 11.9777L26.3281 7.60314C27.3444 5.59351 29.6322 4.57374 31.8063 5.16136L36.4877 6.42671C37.9647 6.82595 39.5436 6.48927 40.7292 5.52226L44.4975 2.44891Z" fill="#5A52FF"/>
<path d="M32.2499 56.0392C27.1009 45.4363 29.9433 35.3629 39.4084 30.7665C47.9942 26.597 56.3845 28.2113 61.1244 36.3923L53.4179 40.1347C51.404 36.3827 47.2488 35.4603 42.8524 37.5952C37.732 40.0818 36.6927 45.4444 40.0082 52.2717C43.3739 59.2024 48.231 61.7015 53.3514 59.2149C57.7478 57.08 59.4637 53.2425 57.8636 49.2895L65.5702 45.547C69.4027 54.3604 65.0709 62.0249 56.5886 66.1442C47.1752 70.7155 37.4241 66.6939 32.2499 56.0392Z" fill="white"/>
</svg>
