<svg width="24" height="23" viewBox="0 0 24 23" fill="none" xmlns="http://www.w3.org/2000/svg">
<g clip-path="url(#clip0_194_7323)">
<path d="M24.0004 8.98884H0.000488281V4.36239C0.000488281 4.1434 0.185785 3.96582 0.4143 3.96582H23.5867C23.8152 3.96582 24.0005 4.1434 24.0005 4.36239L24.0004 8.98884Z" fill="#FAB446"/>
<path d="M23.5866 19.0347H0.4143C0.185785 19.0347 0.000488281 18.8571 0.000488281 18.6381V14.0117H24.0004V18.6381C24.0004 18.8572 23.8151 19.0347 23.5866 19.0347Z" fill="#73AF00"/>
<path d="M24.0004 8.98828H0.000488281V14.011H24.0004V8.98828Z" fill="#F5F5F5"/>
<path d="M12 13.6311C10.7736 13.6311 9.77588 12.6749 9.77588 11.4996C9.77588 10.3243 10.7736 9.36816 12 9.36816C13.2264 9.36816 14.2241 10.3243 14.2241 11.4996C14.2241 12.6749 13.2264 13.6311 12 13.6311ZM12 9.76469C11.0017 9.76469 10.1896 10.5429 10.1896 11.4996C10.1896 12.4564 11.0017 13.2345 12 13.2345C12.9983 13.2345 13.8104 12.4564 13.8104 11.4996C13.8104 10.5429 12.9983 9.76469 12 9.76469Z" fill="#41479B"/>
<path d="M12.0002 11.7411C12.1394 11.7411 12.2523 11.6329 12.2523 11.4994C12.2523 11.366 12.1394 11.2578 12.0002 11.2578C11.8609 11.2578 11.748 11.366 11.748 11.4994C11.748 11.6329 11.8609 11.7411 12.0002 11.7411Z" fill="#41479B"/>
<path d="M12.0001 11.5359L11.3593 11.5979L9.98291 11.5359V11.4634L11.3593 11.4014L12.0001 11.4634V11.5359Z" fill="#41479B"/>
<path d="M12 11.5359L12.6408 11.5979L14.0172 11.5359V11.4634L12.6408 11.4014L12 11.4634V11.5359Z" fill="#41479B"/>
<path d="M11.9621 11.4996L11.8975 10.8855L11.9621 9.56641H12.0378L12.1025 10.8855L12.0378 11.4996H11.9621Z" fill="#41479B"/>
<path d="M11.9621 11.5L11.8975 12.1141L11.9621 13.4332H12.0378L12.1025 12.1141L12.0378 11.5H11.9621Z" fill="#41479B"/>
<path d="M11.9733 11.5256L11.4744 11.1353L10.5469 10.1587L10.6004 10.1074L11.6194 10.9963L12.0267 11.4744L11.9733 11.5256Z" fill="#41479B"/>
<path d="M11.9736 11.5248L12.3809 12.0029L13.4 12.8918L13.4535 12.8406L12.5259 11.864L12.0271 11.4736L11.9736 11.5248Z" fill="#41479B"/>
<path d="M11.9736 11.4744L12.3809 10.9963L13.4 10.1074L13.4535 10.1587L12.5259 11.1353L12.0271 11.5256L11.9736 11.4744Z" fill="#41479B"/>
<path d="M11.9733 11.4736L11.4744 11.864L10.5469 12.8406L10.6004 12.8918L11.6194 12.0029L12.0267 11.5248L11.9733 11.4736Z" fill="#41479B"/>
<path d="M12.0147 11.5328L11.4474 11.8251L10.151 12.2726L10.1221 12.2056L11.369 11.6436L11.9857 11.4658L12.0147 11.5328Z" fill="#41479B"/>
<path d="M12.0143 11.5334L12.6311 11.3556L13.878 10.7935L13.849 10.7266L12.5526 11.1741L11.9854 11.4663L12.0143 11.5334Z" fill="#41479B"/>
<path d="M11.9648 11.514L11.6598 10.9703L11.1929 9.72796L11.2628 9.7002L11.8493 10.8952L12.0347 11.4862L11.9648 11.514Z" fill="#41479B"/>
<path d="M11.9648 11.5131L12.1503 12.1041L12.7368 13.2991L12.8067 13.2714L12.3398 12.029L12.0348 11.4854L11.9648 11.5131Z" fill="#41479B"/>
<path d="M11.9857 11.5334L11.369 11.3556L10.1221 10.7935L10.151 10.7266L11.4474 11.1741L12.0147 11.4663L11.9857 11.5334Z" fill="#41479B"/>
<path d="M11.9854 11.5328L12.5526 11.8251L13.849 12.2726L13.878 12.2056L12.6311 11.6436L12.0143 11.4658L11.9854 11.5328Z" fill="#41479B"/>
<path d="M11.9648 11.4862L12.1503 10.8952L12.7368 9.7002L12.8067 9.72796L12.3398 10.9703L12.0348 11.514L11.9648 11.4862Z" fill="#41479B"/>
<path d="M11.9648 11.4854L11.6598 12.029L11.1929 13.2714L11.2628 13.2991L11.8493 12.1041L12.0347 11.5131L11.9648 11.4854Z" fill="#41479B"/>
<path d="M12.0003 11.8257C12.1881 11.8257 12.3404 11.6798 12.3404 11.4998C12.3404 11.3198 12.1881 11.1738 12.0003 11.1738C11.8124 11.1738 11.6602 11.3198 11.6602 11.4998C11.6602 11.6798 11.8124 11.8257 12.0003 11.8257Z" fill="#F5F5F5"/>
<path d="M12.0003 11.6956C12.113 11.6956 12.2043 11.6081 12.2043 11.5001C12.2043 11.3922 12.113 11.3047 12.0003 11.3047C11.8877 11.3047 11.7964 11.3922 11.7964 11.5001C11.7964 11.6081 11.8877 11.6956 12.0003 11.6956Z" fill="#41479B"/>
</g>
<defs>
<clipPath id="clip0_194_7323">
<rect width="24" height="23" fill="white"/>
</clipPath>
</defs>
</svg>
