<svg width="23" height="23" viewBox="0 0 23 23" fill="none" xmlns="http://www.w3.org/2000/svg">
<path fill-rule="evenodd" clip-rule="evenodd" d="M22.5403 11.7625C22.5403 10.3935 21.3354 9.41016 19.9664 9.41016H13.7243C12.4958 9.41016 11.5 10.406 11.5 11.6344C11.5 12.8628 12.4958 13.8587 13.7243 13.8587H14.7282C16.268 13.8587 17.4313 15.3416 16.3909 16.4767C16.3212 16.5528 16.2491 16.627 16.1747 16.6993C15.7245 17.1367 15.3944 17.7064 15.3944 18.334C15.3944 19.373 16.2366 20.2152 17.2756 20.2152H18.0678C18.7387 20.2152 19.3969 19.9732 19.8401 19.4696C21.5636 17.5114 22.5403 14.8526 22.5403 11.7625Z" fill="#4285F4"/>
<path fill-rule="evenodd" clip-rule="evenodd" d="M11.4997 23.0008C13.4505 23.0008 15.2033 22.5943 16.7087 21.8565C18.0812 21.1839 18.0117 19.3613 16.8044 18.424C15.9625 17.7703 14.8042 17.7739 13.7871 18.0927C13.0971 18.3089 12.3316 18.4268 11.4997 18.4268C9.06983 18.4268 6.94269 17.0955 5.7434 15.1417C5.24051 14.3224 4.4162 13.6855 3.4549 13.6855C2.22207 13.6855 1.22266 14.685 1.22266 15.9178V16.0932C1.22266 16.4693 1.3069 16.8424 1.49252 17.1695C3.46925 20.6523 7.20819 23.0008 11.4997 23.0008Z" fill="#34A853"/>
<path fill-rule="evenodd" clip-rule="evenodd" d="M3.65105 14.7825C4.49834 14.1254 4.78893 13.0047 4.71889 11.9348C4.70947 11.7909 4.70466 11.6462 4.70466 11.5006C4.70466 10.8866 4.7904 10.2864 4.94521 9.71378C5.01713 9.44779 5.06535 9.17508 5.06535 8.89954V8.71187C5.06535 7.39968 4.0016 6.33594 2.68941 6.33594C1.79062 6.33594 0.948569 6.83667 0.65045 7.68457C0.230488 8.87902 0 10.1641 0 11.5006C0 12.2767 0.0777196 13.0355 0.225128 13.7692C0.538521 15.3291 2.39375 15.7575 3.65105 14.7825Z" fill="#FBBC05"/>
<path fill-rule="evenodd" clip-rule="evenodd" d="M11.4997 4.57397C12.3932 4.57397 13.2384 4.73646 14.0129 5.05835C15.1755 5.54161 16.6073 5.58245 17.4976 4.69214C18.4249 3.76485 18.4071 2.22658 17.2811 1.5544C15.6284 0.567768 13.6877 0 11.4997 0C7.64466 0 4.23551 1.89507 2.14907 4.8051C1.54295 5.65048 1.81571 6.79553 2.63771 7.43299C3.82294 8.35215 5.6003 7.7908 6.63098 6.70115C7.86351 5.39811 9.58791 4.57397 11.4997 4.57397Z" fill="#EA4335"/>
</svg>
