<svg width="127" height="38" viewBox="0 0 127 38" fill="none" xmlns="http://www.w3.org/2000/svg">
<path d="M1.07461 22.7039C1.07461 18.0944 3.98738 15.0402 8.42724 15.0402C12.3863 15.0402 15.2708 17.3874 15.5536 21.3465H11.34C11.2834 19.4801 10.124 18.6034 8.42724 18.6034C6.44768 18.6034 5.28823 20.1022 5.28823 22.7039C5.28823 25.3339 6.44768 26.861 8.42724 26.861C10.0957 26.861 11.2552 26.0975 11.34 24.3724H15.5536C15.186 28.2184 12.3581 30.4242 8.42724 30.4242C4.01566 30.4242 1.07461 27.3417 1.07461 22.7039ZM45.0772 21.799C45.0772 19.7063 43.9743 18.8014 42.2776 18.8014C40.6939 18.8014 39.5062 19.9608 39.5062 21.601V30H35.3209V15.521H39.5062V17.6702C40.5525 16.0017 42.3059 15.0402 43.9461 15.0402C47.0285 15.0402 49.2343 17.1329 49.2343 20.9223V30H45.0772V21.799ZM61.6772 21.799C61.6772 19.7063 60.5743 18.8014 58.8775 18.8014C57.2939 18.8014 56.1062 19.9608 56.1062 21.601V30H51.9208V15.521H56.1062V17.6702C57.1525 16.0017 58.9058 15.0402 60.546 15.0402C63.6285 15.0402 65.8342 17.1329 65.8342 20.9223V30H61.6772V21.799ZM68.2097 22.7039C68.2097 18.0944 70.9811 15.2382 75.3927 15.2382C79.7477 15.2382 82.8867 18.4055 82.8867 22.8171V23.7503H72.4799C72.7344 25.8712 73.809 27.0024 75.5906 27.0024C77.1177 27.0024 78.0509 26.3237 78.2771 25.136H82.6887C82.1231 28.5578 79.6346 30.2262 75.5623 30.2262C71.0376 30.2262 68.2097 27.3417 68.2097 22.7039ZM75.4209 18.2358C73.8939 18.2358 72.9041 19.0842 72.5647 21.0072H78.4185C78.2489 19.3104 77.0894 18.2358 75.4209 18.2358ZM85.0076 22.7039C85.0076 18.0944 87.9204 15.0402 92.3602 15.0402C96.3193 15.0402 99.2038 17.3874 99.4866 21.3465H95.273C95.2165 19.4801 94.057 18.6034 92.3602 18.6034C90.3807 18.6034 89.2212 20.1022 89.2212 22.7039C89.2212 25.3339 90.3807 26.861 92.3602 26.861C94.0287 26.861 95.1882 26.0975 95.273 24.3724H99.4866C99.119 28.2184 96.2911 30.4242 92.3602 30.4242C87.9487 30.4242 85.0076 27.3417 85.0076 22.7039ZM109.3 26.4934V30H107.688C104.803 30 102.852 28.4729 102.852 25.4188V18.8579H100.561V15.521H102.852V11.7598H107.009V15.521H109.3V18.8579H107.009V24.8532C107.009 26.0692 107.461 26.4934 108.31 26.4934H109.3ZM110.77 22.7039C110.77 18.0944 113.711 15.0402 118.151 15.0402C122.534 15.0402 125.504 18.0944 125.504 22.7039C125.504 27.3417 122.534 30.4242 118.151 30.4242C113.711 30.4242 110.77 27.3417 110.77 22.7039ZM121.262 22.7039C121.262 20.1022 120.102 18.6034 118.151 18.6034C116.171 18.6034 114.984 20.1022 114.984 22.7039C114.984 25.3339 116.171 26.861 118.151 26.861C120.102 26.861 121.262 25.3339 121.262 22.7039Z" fill="black"/>
<g clip-path="url(#clip0_241_162)">
<path d="M25.4456 14.8826C25.7342 14.6472 26.1484 14.6472 26.437 14.8826L27.0591 15.39C27.255 15.5497 27.5157 15.6053 27.7595 15.5393L28.5325 15.3304C28.8915 15.2334 29.2692 15.4018 29.437 15.7336L29.8022 16.4559C29.916 16.6807 30.1306 16.8371 30.3794 16.8766L31.1738 17.0024C31.5398 17.0604 31.8153 17.3667 31.8343 17.7368L31.8761 18.5517C31.889 18.8023 32.021 19.0315 32.2312 19.1685L32.9108 19.6116C33.2203 19.8133 33.347 20.2038 33.215 20.5489L32.9226 21.313C32.8331 21.5468 32.8606 21.8092 32.9965 22.0193L33.4404 22.7053C33.641 23.0153 33.5982 23.4232 33.3375 23.6849L32.7627 24.262C32.5859 24.4395 32.5045 24.6907 32.5437 24.9381L32.6716 25.7459C32.7294 26.1113 32.524 26.4674 32.1788 26.6004L31.4251 26.8906C31.1905 26.981 31.0134 27.1782 30.9489 27.4212L30.7402 28.2069C30.6449 28.5658 30.311 28.8086 29.9403 28.7887L29.1396 28.7459C28.8876 28.7324 28.6446 28.841 28.4865 29.0376L27.9815 29.6656C27.7483 29.9557 27.3433 30.0419 27.0121 29.8719L26.2995 29.506C26.0746 29.3907 25.808 29.3907 25.5831 29.506L24.8705 29.8719C24.5394 30.0419 24.1343 29.9557 23.9011 29.6656L23.3962 29.0376C23.2381 28.841 22.995 28.7324 22.743 28.7459L21.9424 28.7887C21.5716 28.8086 21.2378 28.5658 21.1425 28.2069L20.9337 27.4212C20.8692 27.1782 20.6921 26.981 20.4576 26.8906L19.7039 26.6004C19.3586 26.4674 19.1532 26.1113 19.2111 25.7459L19.3389 24.9381C19.3781 24.6907 19.2967 24.4395 19.12 24.262L18.5451 23.6849C18.2845 23.4232 18.2417 23.0153 18.4422 22.7053L18.886 22.0193C19.022 21.8092 19.0495 21.5468 18.9601 21.313L18.6676 20.5489C18.5356 20.2038 18.6623 19.8133 18.9718 19.6116L19.6515 19.1685C19.8617 19.0315 19.9936 18.8023 20.0065 18.5517L20.0483 17.7368C20.0673 17.3667 20.3428 17.0604 20.7088 17.0024L21.5032 16.8766C21.752 16.8371 21.9667 16.6807 22.0804 16.4559L22.4456 15.7336C22.6134 15.4018 22.9912 15.2334 23.3502 15.3304L24.1231 15.5393C24.367 15.6053 24.6277 15.5497 24.8234 15.39L25.4456 14.8826Z" fill="#5A52FF"/>
</g>
<defs>
<clipPath id="clip0_241_162">
<rect width="15.6856" height="15.6856" fill="white" transform="translate(18.0986 14.4785)"/>
</clipPath>
</defs>
</svg>
