<svg width="33" height="34" viewBox="0 0 33 34" fill="none" xmlns="http://www.w3.org/2000/svg">
<path d="M2.75 11.9672V22.0322C2.75 24.0947 4.99124 25.3872 6.77874 24.356L11.1375 21.8535L15.4962 19.3373C15.7712 19.1723 15.9913 18.9935 16.17 18.7735V15.2535C15.9913 15.0335 15.7712 14.8547 15.4962 14.6897L11.1375 12.1735L6.77874 9.67101C4.99124 8.61226 2.75 9.90473 2.75 11.9672Z" stroke="black" stroke-width="2" stroke-linecap="round" stroke-linejoin="round"/>
<path d="M16.1699 11.9672V22.0322C16.1699 24.0947 18.4112 25.3872 20.1987 24.356L24.5574 21.8535L28.9162 19.3373C30.7037 18.306 30.7037 15.7347 28.9162 14.6897L24.5574 12.1735L20.1987 9.67101C18.4112 8.61226 16.1699 9.90473 16.1699 11.9672Z" stroke="black" stroke-width="2" stroke-linecap="round" stroke-linejoin="round"/>
</svg>
