<svg width="33" height="34" viewBox="0 0 33 34" fill="none" xmlns="http://www.w3.org/2000/svg">
<path d="M16.5 21.8125C19.5388 21.8125 22 19.3513 22 16.3125V8.75C22 5.71125 19.5388 3.25 16.5 3.25C13.4612 3.25 11 5.71125 11 8.75V16.3125C11 19.3513 13.4612 21.8125 16.5 21.8125Z" stroke="black" stroke-width="2" stroke-linecap="round" stroke-linejoin="round"/>
<path d="M5.98145 13.7686V16.1061C5.98145 21.9086 10.6977 26.6248 16.5002 26.6248C22.3027 26.6248 27.0189 21.9086 27.0189 16.1061V13.7686" stroke="black" stroke-width="2" stroke-linecap="round" stroke-linejoin="round"/>
<path d="M14.5889 9.34129C15.8264 8.88754 17.1739 8.88754 18.4114 9.34129" stroke="black" stroke-width="2" stroke-linecap="round" stroke-linejoin="round"/>
<path d="M15.3999 12.2567C16.1287 12.0642 16.8849 12.0642 17.6137 12.2567" stroke="black" stroke-width="2" stroke-linecap="round" stroke-linejoin="round"/>
<path d="M16.5 26.625V30.75" stroke="black" stroke-width="2" stroke-linecap="round" stroke-linejoin="round"/>
</svg>
