<svg width="410" height="410" viewBox="0 0 410 410" fill="none" xmlns="http://www.w3.org/2000/svg">
<path d="M368.918 326.762H341.76V326.967H368.918V326.762Z" fill="#EBEBEB"/>
<path d="M271.6 328.992H264.475V329.197H271.6V328.992Z" fill="#EBEBEB"/>
<path d="M340.939 319.151H325.204V319.356H340.939V319.151Z" fill="#EBEBEB"/>
<path d="M78.4329 320.529H43.0171V320.734H78.4329V320.529Z" fill="#EBEBEB"/>
<path d="M90.9299 320.529H85.7393V320.734H90.9299V320.529Z" fill="#EBEBEB"/>
<path d="M184.623 323.99H107.805V324.195H184.623V323.99Z" fill="#EBEBEB"/>
<path d="M157.112 276.749H122.82C121.007 276.749 119.213 276.379 117.548 275.662C115.883 274.946 114.382 273.897 113.135 272.582C111.888 271.266 110.922 269.71 110.296 268.009C109.671 266.307 109.398 264.496 109.495 262.686L112.16 212.773C112.344 209.367 113.824 206.16 116.297 203.81C118.771 201.461 122.049 200.146 125.46 200.137H154.414C157.831 200.136 161.118 201.446 163.597 203.797C166.076 206.148 167.559 209.361 167.739 212.773L170.412 262.686C170.508 264.494 170.235 266.302 169.61 268.002C168.986 269.701 168.022 271.255 166.778 272.57C165.534 273.885 164.036 274.934 162.374 275.652C160.713 276.371 158.922 276.744 157.112 276.749Z" fill="#F5F5F5"/>
<path d="M192.224 290.386H113.841C113.217 290.386 112.6 290.263 112.024 290.025C111.448 289.786 110.924 289.436 110.483 288.995C110.043 288.554 109.693 288.031 109.454 287.455C109.216 286.879 109.093 286.262 109.093 285.638C109.104 283.905 109.8 282.247 111.029 281.026C112.258 279.805 113.92 279.119 115.653 279.119H190.494C192.227 279.119 193.889 279.805 195.118 281.026C196.347 282.247 197.043 283.905 197.054 285.638C197.054 286.269 196.929 286.893 196.685 287.474C196.441 288.056 196.084 288.583 195.635 289.025C195.185 289.467 194.652 289.815 194.066 290.048C193.481 290.282 192.855 290.397 192.224 290.386Z" fill="#F5F5F5"/>
<path d="M117.687 262.686L120.352 212.773C120.536 209.365 122.017 206.157 124.492 203.808C126.967 201.458 130.247 200.144 133.66 200.137H125.46C122.043 200.138 118.757 201.449 116.277 203.799C113.797 206.15 112.312 209.361 112.127 212.773L109.462 262.686C109.365 264.496 109.638 266.307 110.264 268.009C110.89 269.71 111.855 271.266 113.102 272.582C114.349 273.897 115.851 274.946 117.516 275.662C119.181 276.379 120.974 276.749 122.787 276.749H130.987C129.176 276.745 127.385 276.373 125.723 275.655C124.061 274.937 122.562 273.888 121.318 272.573C120.074 271.257 119.11 269.702 118.486 268.003C117.862 266.303 117.59 264.494 117.687 262.686Z" fill="#EBEBEB"/>
<path d="M157.366 285.802C157.373 284.056 156.694 282.377 155.474 281.127C154.255 279.877 152.593 279.156 150.847 279.119H115.62C113.887 279.119 112.225 279.805 110.996 281.026C109.767 282.247 109.071 283.905 109.06 285.638C109.06 286.897 109.56 288.105 110.451 288.995C111.341 289.886 112.549 290.386 113.808 290.386L152.586 290.55C153.212 290.554 153.833 290.435 154.413 290.198C154.992 289.961 155.52 289.612 155.964 289.171C156.408 288.73 156.761 288.205 157.002 287.627C157.242 287.048 157.366 286.428 157.366 285.802Z" fill="#EBEBEB"/>
<path d="M87.9778 276.749H53.6936C51.8802 276.75 50.0857 276.381 48.4197 275.665C46.7537 274.949 45.251 273.901 44.0033 272.585C42.7556 271.269 41.7892 269.712 41.1628 268.01C40.5365 266.309 40.2635 264.497 40.3604 262.686L43.0336 212.773C43.2142 209.361 44.6969 206.148 47.1761 203.797C49.6552 201.446 52.9419 200.136 56.3586 200.137H85.28C88.6967 200.136 91.9833 201.446 94.4625 203.797C96.9417 206.148 98.4244 209.361 98.605 212.773L101.278 262.686C101.375 264.494 101.103 266.303 100.479 268.003C99.8543 269.702 98.8907 271.257 97.6466 272.573C96.4024 273.888 94.9037 274.937 93.2415 275.655C91.5793 276.373 89.7884 276.745 87.9778 276.749Z" fill="#F5F5F5"/>
<path d="M123.09 290.386H44.7064C44.0833 290.386 43.4663 290.263 42.8907 290.024C42.3152 289.786 41.7923 289.436 41.3521 288.995C40.9119 288.554 40.5629 288.03 40.3252 287.454C40.0875 286.878 39.9657 286.261 39.9668 285.638C39.9657 284.782 40.1333 283.935 40.4601 283.144C40.7868 282.353 41.2662 281.634 41.8709 281.029C42.4756 280.424 43.1937 279.943 43.9841 279.616C44.7746 279.288 45.6219 279.119 46.4776 279.119H121.36C123.093 279.119 124.755 279.805 125.984 281.026C127.213 282.247 127.909 283.905 127.92 285.638C127.92 286.269 127.795 286.893 127.551 287.474C127.307 288.056 126.95 288.583 126.501 289.025C126.051 289.467 125.518 289.815 124.932 290.048C124.347 290.282 123.721 290.397 123.09 290.386Z" fill="#F5F5F5"/>
<path d="M48.5521 262.686L51.2253 212.773C51.4059 209.361 52.8886 206.148 55.3678 203.797C57.8469 201.446 61.1336 200.136 64.5503 200.137H56.3503C52.9336 200.136 49.6469 201.446 47.1678 203.797C44.6886 206.148 43.2059 209.361 43.0253 212.773L40.3521 262.686C40.2551 264.498 40.5284 266.31 41.1552 268.012C41.7821 269.715 42.7493 271.272 43.9978 272.588C45.2464 273.904 46.75 274.951 48.417 275.667C50.084 276.383 51.8794 276.751 53.6935 276.749H61.8935C60.0794 276.751 58.284 276.383 56.617 275.667C54.95 274.951 53.4464 273.904 52.1978 272.588C50.9493 271.272 49.9821 269.715 49.3552 268.012C48.7284 266.31 48.4551 264.498 48.5521 262.686Z" fill="#EBEBEB"/>
<path d="M88.2322 285.802C88.239 284.056 87.5595 282.377 86.3402 281.127C85.1208 279.877 83.4591 279.156 81.7132 279.119H46.4532C45.5975 279.119 44.7502 279.288 43.9597 279.616C43.1693 279.943 42.4511 280.424 41.8465 281.029C41.2418 281.634 40.7624 282.353 40.4356 283.144C40.1089 283.935 39.9413 284.782 39.9424 285.638C39.9413 286.261 40.0631 286.878 40.3008 287.454C40.5385 288.03 40.8875 288.554 41.3277 288.995C41.7679 289.436 42.2908 289.786 42.8663 290.024C43.4419 290.263 44.0589 290.386 44.682 290.386L83.4598 290.55C84.0853 290.553 84.7054 290.433 85.2842 290.196C85.8631 289.958 86.3894 289.609 86.8329 289.168C87.2764 288.727 87.6283 288.202 87.8684 287.625C88.1086 287.047 88.2322 286.428 88.2322 285.802Z" fill="#EBEBEB"/>
<path d="M43.4683 84.8453L51.0123 78.6543H165.976L171.905 85.3537V180.064L163.664 186.599H50.0447L43.4683 179.481V84.8453Z" fill="#F0F0F0"/>
<path d="M165.968 78.6543H155.423C156.657 78.6532 157.878 78.8953 159.018 79.3666C160.158 79.838 161.194 80.5294 162.067 81.4014C162.94 82.2733 163.632 83.3087 164.105 84.4484C164.577 85.5881 164.82 86.8096 164.82 88.0433V177.202C164.82 179.693 163.831 182.082 162.071 183.844C160.31 185.606 157.922 186.597 155.431 186.599H165.968L171.905 180.039V85.3537L165.968 78.6543Z" fill="#FAFAFA"/>
<path d="M162.77 76.3252H52.8326C49.7262 76.3317 46.7491 77.5697 44.5541 79.7678C42.3591 81.966 41.1252 84.9448 41.123 88.0512V177.202C41.1252 180.305 42.3585 183.281 44.5522 185.476C46.7459 187.672 49.721 188.907 52.8244 188.911H162.77C163.239 188.912 163.708 188.879 164.172 188.813C167.015 188.476 169.635 187.107 171.536 184.967C173.438 182.827 174.488 180.064 174.488 177.202V137.325V88.0512C174.481 84.9447 173.245 81.9671 171.049 79.7697C168.853 77.5723 165.877 76.3339 162.77 76.3252ZM169.847 147.993V177.202C169.843 178.957 169.187 180.649 168.007 181.949C166.827 183.249 165.206 184.064 163.459 184.237C163.246 184.237 163.008 184.237 162.778 184.237H52.8326C50.9586 184.233 49.1624 183.487 47.8364 182.163C46.5105 180.838 45.7625 179.043 45.756 177.169V88.0512C45.7582 86.175 46.5045 84.3763 47.8311 83.0497C49.1578 81.723 50.9565 80.9768 52.8326 80.9746H162.778C164.652 80.9811 166.448 81.729 167.772 83.0549C169.097 84.3809 169.842 86.1771 169.847 88.0512V147.993Z" fill="#E0E0E0"/>
<path d="M58.6298 104.14C58.6298 104.14 100.729 110.593 100.45 99.4987C100.171 88.4041 83.4184 88.9207 79.5398 93.5619C75.6612 98.2031 70.241 91.4955 66.6248 95.3659C63.0086 99.2363 57.5966 98.4573 58.6298 104.14Z" fill="white"/>
<path d="M126.518 135.299C126.518 135.299 153.832 139.481 153.643 132.29C153.455 125.098 142.598 125.426 140.081 128.436C137.563 131.445 134.054 127.099 131.708 129.608C129.363 132.118 125.854 131.626 126.518 135.299Z" fill="white"/>
<path d="M137.514 106.272C137.514 106.272 156.604 109.371 159.703 103.697C162.803 98.0226 155.603 94.677 151.963 98.777C148.322 102.877 141.639 98.0144 137.514 106.272Z" fill="white"/>
<path d="M83.0825 135.553V128.739H65.6985V135.553H60.2783V184.352H88.5027V135.553H83.0825Z" fill="#E6E6E6"/>
<path d="M65.7065 137.366H62.0903V140.982H65.7065V137.366Z" fill="white"/>
<path d="M72.7012 137.366H69.085V140.982H72.7012V137.366Z" fill="white"/>
<path opacity="0.2" d="M79.6958 137.366H76.0796V140.982H79.6958V137.366Z" fill="white"/>
<path d="M86.6987 137.366H83.0825V140.982H86.6987V137.366Z" fill="white"/>
<path opacity="0.2" d="M65.7065 143.926H62.0903V147.542H65.7065V143.926Z" fill="white"/>
<path d="M72.7012 143.926H69.085V147.542H72.7012V143.926Z" fill="white"/>
<path d="M79.6958 143.926H76.0796V147.542H79.6958V143.926Z" fill="white"/>
<path opacity="0.2" d="M86.6987 143.926H83.0825V147.542H86.6987V143.926Z" fill="white"/>
<path d="M65.7065 150.494H62.0903V154.11H65.7065V150.494Z" fill="white"/>
<path opacity="0.2" d="M72.7012 150.494H69.085V154.11H72.7012V150.494Z" fill="white"/>
<path d="M79.6958 150.494H76.0796V154.11H79.6958V150.494Z" fill="white"/>
<path d="M72.7012 131.691H69.085V135.308H72.7012V131.691Z" fill="white"/>
<path d="M79.6958 131.691H76.0796V135.308H79.6958V131.691Z" fill="white"/>
<path d="M86.6987 150.494H83.0825V154.11H86.6987V150.494Z" fill="white"/>
<path d="M65.7065 157.055H62.0903V160.671H65.7065V157.055Z" fill="white"/>
<path opacity="0.2" d="M72.7012 157.055H69.085V160.671H72.7012V157.055Z" fill="white"/>
<path d="M79.6958 157.055H76.0796V160.671H79.6958V157.055Z" fill="white"/>
<path d="M86.6987 157.055H83.0825V160.671H86.6987V157.055Z" fill="white"/>
<path d="M65.7065 163.622H62.0903V167.238H65.7065V163.622Z" fill="white"/>
<path d="M72.7012 163.622H69.085V167.238H72.7012V163.622Z" fill="white"/>
<path opacity="0.2" d="M79.6958 163.622H76.0796V167.238H79.6958V163.622Z" fill="white"/>
<path d="M86.6987 163.622H83.0825V167.238H86.6987V163.622Z" fill="white"/>
<path d="M65.7065 170.183H62.0903V173.799H65.7065V170.183Z" fill="white"/>
<path opacity="0.2" d="M72.7012 170.183H69.085V173.799H72.7012V170.183Z" fill="white"/>
<path d="M79.6958 170.183H76.0796V173.799H79.6958V170.183Z" fill="white"/>
<path opacity="0.2" d="M86.6987 170.183H83.0825V173.799H86.6987V170.183Z" fill="white"/>
<path opacity="0.2" d="M65.7065 176.751H62.0903V180.367H65.7065V176.751Z" fill="white"/>
<path d="M72.7012 176.751H69.085V180.367H72.7012V176.751Z" fill="white"/>
<path d="M79.6958 176.751H76.0796V180.367H79.6958V176.751Z" fill="white"/>
<path d="M86.6987 176.751H83.0825V180.367H86.6987V176.751Z" fill="white"/>
<path d="M155.316 157.817V154.103H145.862V157.817H142.918V184.352H158.268V157.817H155.316Z" fill="#E6E6E6"/>
<path d="M145.87 158.793H143.902V160.761H145.87V158.793Z" fill="white"/>
<path d="M149.675 158.793H147.707V160.761H149.675V158.793Z" fill="white"/>
<path d="M153.479 158.793H151.511V160.761H153.479V158.793Z" fill="white"/>
<path d="M157.284 158.793H155.316V160.761H157.284V158.793Z" fill="white"/>
<path d="M145.87 162.368H143.902V164.336H145.87V162.368Z" fill="white"/>
<path d="M149.675 162.368H147.707V164.336H149.675V162.368Z" fill="white"/>
<path d="M153.479 162.368H151.511V164.336H153.479V162.368Z" fill="white"/>
<path opacity="0.2" d="M157.284 162.368H155.316V164.336H157.284V162.368Z" fill="white"/>
<path d="M145.87 165.935H143.902V167.903H145.87V165.935Z" fill="white"/>
<path d="M149.675 165.935H147.707V167.903H149.675V165.935Z" fill="white"/>
<path d="M153.479 165.935H151.511V167.903H153.479V165.935Z" fill="white"/>
<path d="M149.675 155.709H147.707V157.677H149.675V155.709Z" fill="white"/>
<path opacity="0.2" d="M153.479 155.709H151.511V157.677H153.479V155.709Z" fill="white"/>
<path d="M157.284 165.935H155.316V167.903H157.284V165.935Z" fill="white"/>
<path d="M145.87 169.51H143.902V171.478H145.87V169.51Z" fill="white"/>
<path d="M149.675 169.51H147.707V171.478H149.675V169.51Z" fill="white"/>
<path opacity="0.2" d="M153.479 169.51H151.511V171.478H153.479V169.51Z" fill="white"/>
<path d="M157.284 169.51H155.316V171.478H157.284V169.51Z" fill="white"/>
<path d="M145.87 173.077H143.902V175.045H145.87V173.077Z" fill="white"/>
<path d="M149.675 173.077H147.707V175.045H149.675V173.077Z" fill="white"/>
<path d="M153.479 173.077H151.511V175.045H153.479V173.077Z" fill="white"/>
<path d="M157.284 173.077H155.316V175.045H157.284V173.077Z" fill="white"/>
<path d="M145.87 176.644H143.902V178.612H145.87V176.644Z" fill="white"/>
<path d="M149.675 176.644H147.707V178.612H149.675V176.644Z" fill="white"/>
<path d="M153.479 176.644H151.511V178.612H153.479V176.644Z" fill="white"/>
<path opacity="0.2" d="M157.284 176.644H155.316V178.612H157.284V176.644Z" fill="white"/>
<path d="M145.87 180.219H143.902V182.187H145.87V180.219Z" fill="white"/>
<path d="M149.675 180.219H147.707V182.187H149.675V180.219Z" fill="white"/>
<path d="M153.479 180.219H151.511V182.187H153.479V180.219Z" fill="white"/>
<path opacity="0.2" d="M157.284 180.219H155.316V182.187H157.284V180.219Z" fill="white"/>
<path d="M111.692 163.581H91.1924V184.343H111.692V163.581Z" fill="#E6E6E6"/>
<path d="M95.1284 164.894H92.5044V167.518H95.1284V164.894Z" fill="white"/>
<path d="M100.212 164.894H97.5884V167.518H100.212V164.894Z" fill="white"/>
<path opacity="0.5" d="M105.296 164.894H102.672V167.518H105.296V164.894Z" fill="white"/>
<path d="M110.38 164.894H107.756V167.518H110.38V164.894Z" fill="white"/>
<path d="M95.1284 169.666H92.5044V172.29H95.1284V169.666Z" fill="white"/>
<path opacity="0.5" d="M100.212 169.666H97.5884V172.29H100.212V169.666Z" fill="white"/>
<path d="M105.296 169.666H102.672V172.29H105.296V169.666Z" fill="white"/>
<path opacity="0.5" d="M110.38 169.666H107.756V172.29H110.38V169.666Z" fill="white"/>
<path opacity="0.5" d="M95.1284 174.438H92.5044V177.062H95.1284V174.438Z" fill="white"/>
<path d="M100.212 174.438H97.5884V177.062H100.212V174.438Z" fill="white"/>
<path opacity="0.5" d="M105.296 174.438H102.672V177.062H105.296V174.438Z" fill="white"/>
<path d="M110.38 174.438H107.756V177.062H110.38V174.438Z" fill="white"/>
<path d="M95.1284 179.202H92.5044V181.826H95.1284V179.202Z" fill="white"/>
<path opacity="0.5" d="M100.212 179.202H97.5884V181.826H100.212V179.202Z" fill="white"/>
<path opacity="0.5" d="M105.296 179.202H102.672V181.826H105.296V179.202Z" fill="white"/>
<path d="M110.38 179.202H107.756V181.826H110.38V179.202Z" fill="white"/>
<path d="M361.022 69.1914H216.964C212.603 69.1914 209.067 72.7268 209.067 77.088V305.77C209.067 310.131 212.603 313.666 216.964 313.666H361.022C365.383 313.666 368.918 310.131 368.918 305.77V77.088C368.918 72.7268 365.383 69.1914 361.022 69.1914Z" fill="#F5F5F5"/>
<path d="M368.926 284.753H208.387V301.325H368.926V284.753Z" fill="#E6E6E6"/>
<path d="M292.904 69.1914H285.573V313.396H292.904V69.1914Z" fill="#E0E0E0"/>
<path d="M266.041 79.1377H230.174C229.081 79.1366 227.998 79.3512 226.988 79.7691C225.977 80.1869 225.06 80.8 224.286 81.573C223.513 82.3461 222.9 83.2641 222.482 84.2743C222.065 85.2846 221.85 86.3674 221.851 87.4607V173.421C221.85 174.515 222.065 175.598 222.482 176.609C222.9 177.62 223.513 178.538 224.286 179.312C225.059 180.086 225.977 180.699 226.987 181.118C227.997 181.537 229.08 181.752 230.174 181.752H266.041C268.249 181.75 270.366 180.872 271.927 179.309C273.487 177.747 274.364 175.629 274.364 173.421V87.4607C274.364 85.2533 273.487 83.1363 271.926 81.5754C270.365 80.0146 268.248 79.1377 266.041 79.1377ZM269.034 171.33C269.034 172.124 268.878 172.91 268.574 173.643C268.27 174.376 267.825 175.042 267.264 175.604C266.703 176.165 266.036 176.61 265.303 176.914C264.57 177.217 263.784 177.374 262.99 177.374H232.937C232.144 177.374 231.359 177.217 230.626 176.914C229.893 176.61 229.228 176.164 228.667 175.603C228.107 175.042 227.662 174.376 227.359 173.642C227.057 172.909 226.901 172.124 226.902 171.33V89.7321C226.902 88.1315 227.538 86.5964 228.67 85.4646C229.802 84.3327 231.337 83.6969 232.937 83.6969H262.99C264.592 83.6969 266.128 84.3325 267.261 85.4641C268.394 86.5957 269.032 88.1307 269.034 89.7321V171.33Z" fill="#E0E0E0"/>
<path d="M269.034 89.7325V171.331C269.034 172.124 268.878 172.91 268.574 173.643C268.27 174.377 267.825 175.043 267.264 175.604C266.703 176.165 266.036 176.61 265.303 176.914C264.57 177.218 263.784 177.374 262.991 177.374H232.938C232.144 177.374 231.359 177.218 230.626 176.914C229.893 176.61 229.228 176.165 228.667 175.604C228.107 175.042 227.662 174.376 227.359 173.643C227.057 172.91 226.901 172.124 226.902 171.331V89.7325C226.902 88.1318 227.538 86.5968 228.67 85.4649C229.802 84.3331 231.337 83.6973 232.938 83.6973H262.991C264.592 83.6973 266.128 84.3329 267.261 85.4644C268.394 86.596 269.032 88.1311 269.034 89.7325Z" fill="#F0F0F0"/>
<path d="M263.056 147.337H233.167V177.62H263.056V147.337Z" fill="#E6E6E6"/>
<path d="M238.907 149.248H235.078V153.077H238.907V149.248Z" fill="white"/>
<path d="M246.32 149.248H242.49V153.077H246.32V149.248Z" fill="white"/>
<path opacity="0.5" d="M253.733 149.248H249.903V153.077H253.733V149.248Z" fill="white"/>
<path d="M261.145 149.248H257.316V153.077H261.145V149.248Z" fill="white"/>
<path d="M238.907 156.201H235.078V160.031H238.907V156.201Z" fill="white"/>
<path opacity="0.5" d="M246.32 156.201H242.49V160.031H246.32V156.201Z" fill="white"/>
<path d="M253.733 156.201H249.903V160.031H253.733V156.201Z" fill="white"/>
<path opacity="0.5" d="M261.145 156.201H257.316V160.031H261.145V156.201Z" fill="white"/>
<path opacity="0.5" d="M238.907 163.155H235.078V166.985H238.907V163.155Z" fill="white"/>
<path d="M246.32 163.155H242.49V166.985H246.32V163.155Z" fill="white"/>
<path opacity="0.5" d="M253.733 163.155H249.903V166.985H253.733V163.155Z" fill="white"/>
<path d="M261.145 163.155H257.316V166.985H261.145V163.155Z" fill="white"/>
<path d="M238.907 170.108H235.078V173.938H238.907V170.108Z" fill="white"/>
<path opacity="0.5" d="M246.32 170.108H242.49V173.938H246.32V170.108Z" fill="white"/>
<path opacity="0.5" d="M253.733 170.108H249.903V173.938H253.733V170.108Z" fill="white"/>
<path d="M261.145 170.108H257.316V173.938H261.145V170.108Z" fill="white"/>
<path d="M348.992 79.1377H313.125C312.032 79.1366 310.949 79.3512 309.939 79.7691C308.929 80.1869 308.011 80.8 307.238 81.573C306.465 82.3461 305.852 83.2641 305.434 84.2743C305.016 85.2846 304.801 86.3674 304.802 87.4607V173.421C304.801 174.515 305.016 175.598 305.433 176.609C305.851 177.62 306.464 178.538 307.237 179.312C308.01 180.086 308.928 180.699 309.938 181.118C310.949 181.537 312.032 181.752 313.125 181.752H348.992C351.2 181.75 353.317 180.872 354.878 179.309C356.438 177.747 357.315 175.629 357.315 173.421V87.4607C357.315 85.2533 356.438 83.1363 354.877 81.5754C353.316 80.0146 351.199 79.1377 348.992 79.1377ZM351.985 171.33C351.985 172.124 351.829 172.91 351.525 173.643C351.221 174.376 350.776 175.042 350.215 175.604C349.654 176.165 348.988 176.61 348.254 176.914C347.521 177.217 346.735 177.374 345.942 177.374H315.889C315.095 177.374 314.31 177.217 313.577 176.914C312.844 176.61 312.179 176.164 311.618 175.603C311.058 175.042 310.613 174.376 310.31 173.642C310.008 172.909 309.852 172.124 309.853 171.33V89.7321C309.853 88.1315 310.489 86.5964 311.621 85.4646C312.753 84.3327 314.288 83.6969 315.889 83.6969H345.942C347.543 83.6969 349.079 84.3325 350.212 85.4641C351.345 86.5957 351.983 88.1307 351.985 89.7321V171.33Z" fill="#E0E0E0"/>
<path d="M351.985 89.7325V171.331C351.985 172.124 351.829 172.91 351.525 173.643C351.221 174.377 350.776 175.043 350.215 175.604C349.654 176.165 348.988 176.61 348.254 176.914C347.521 177.218 346.735 177.374 345.942 177.374H315.889C315.095 177.374 314.31 177.218 313.577 176.914C312.844 176.61 312.179 176.165 311.618 175.604C311.058 175.042 310.613 174.376 310.311 173.643C310.008 172.91 309.852 172.124 309.854 171.331V89.7325C309.854 88.1318 310.489 86.5968 311.621 85.4649C312.753 84.3331 314.288 83.6973 315.889 83.6973H345.942C347.543 83.6973 349.079 84.3329 350.212 85.4644C351.345 86.596 351.983 88.1311 351.985 89.7325Z" fill="#F0F0F0"/>
<path d="M338.061 130.806V177.374H315.921C315.128 177.374 314.343 177.218 313.61 176.914C312.877 176.61 312.212 176.165 311.651 175.604C311.09 175.042 310.646 174.376 310.343 173.643C310.04 172.91 309.885 172.124 309.886 171.331V130.806H315.298V123.992H332.674V130.806H338.061Z" fill="#E6E6E6"/>
<path d="M315.266 132.618H311.649V136.234H315.266V132.618Z" fill="white"/>
<path d="M322.26 132.618H318.644V136.234H322.26V132.618Z" fill="white"/>
<path opacity="0.2" d="M329.254 132.618H325.638V136.234H329.254V132.618Z" fill="white"/>
<path d="M336.257 132.618H332.641V136.234H336.257V132.618Z" fill="white"/>
<path opacity="0.2" d="M315.266 139.178H311.649V142.794H315.266V139.178Z" fill="white"/>
<path d="M322.26 139.178H318.644V142.794H322.26V139.178Z" fill="white"/>
<path d="M329.254 139.178H325.638V142.794H329.254V139.178Z" fill="white"/>
<path opacity="0.2" d="M336.257 139.178H332.641V142.794H336.257V139.178Z" fill="white"/>
<path d="M315.266 145.746H311.649V149.362H315.266V145.746Z" fill="white"/>
<path opacity="0.2" d="M322.26 145.746H318.644V149.362H322.26V145.746Z" fill="white"/>
<path d="M329.254 145.746H325.638V149.362H329.254V145.746Z" fill="white"/>
<path d="M322.26 126.943H318.644V130.56H322.26V126.943Z" fill="white"/>
<path d="M329.254 126.943H325.638V130.56H329.254V126.943Z" fill="white"/>
<path d="M336.257 145.746H332.641V149.362H336.257V145.746Z" fill="white"/>
<path d="M315.266 152.307H311.649V155.923H315.266V152.307Z" fill="white"/>
<path opacity="0.2" d="M322.26 152.307H318.644V155.923H322.26V152.307Z" fill="white"/>
<path d="M329.254 152.307H325.638V155.923H329.254V152.307Z" fill="white"/>
<path d="M336.257 152.307H332.641V155.923H336.257V152.307Z" fill="white"/>
<path d="M315.266 158.875H311.649V162.491H315.266V158.875Z" fill="white"/>
<path d="M322.26 158.875H318.644V162.491H322.26V158.875Z" fill="white"/>
<path opacity="0.2" d="M329.254 158.875H325.638V162.491H329.254V158.875Z" fill="white"/>
<path d="M336.257 158.875H332.641V162.491H336.257V158.875Z" fill="white"/>
<path d="M315.266 165.435H311.649V169.051H315.266V165.435Z" fill="white"/>
<path opacity="0.2" d="M322.26 165.435H318.644V169.051H322.26V165.435Z" fill="white"/>
<path d="M329.254 165.435H325.638V169.051H329.254V165.435Z" fill="white"/>
<path opacity="0.2" d="M336.257 165.435H332.641V169.051H336.257V165.435Z" fill="white"/>
<path opacity="0.2" d="M315.266 172.003H311.649V175.619H315.266V172.003Z" fill="white"/>
<path d="M322.26 172.003H318.644V175.619H322.26V172.003Z" fill="white"/>
<path d="M329.254 172.003H325.638V175.619H329.254V172.003Z" fill="white"/>
<path d="M336.257 172.003H332.641V175.619H336.257V172.003Z" fill="white"/>
<path d="M322.727 107.698C322.727 107.698 350.033 111.88 349.853 104.681C349.672 97.481 338.807 97.8254 336.29 100.835C333.773 103.844 330.263 99.4982 327.918 102.007C325.573 104.517 322.063 104.016 322.727 107.698Z" fill="white"/>
<path d="M368.918 326.762H341.76V326.967H368.918V326.762Z" fill="#EBEBEB"/>
<path d="M271.6 328.992H264.475V329.197H271.6V328.992Z" fill="#EBEBEB"/>
<path d="M340.939 319.151H325.204V319.356H340.939V319.151Z" fill="#EBEBEB"/>
<path d="M78.4329 320.529H43.0171V320.734H78.4329V320.529Z" fill="#EBEBEB"/>
<path d="M90.9299 320.529H85.7393V320.734H90.9299V320.529Z" fill="#EBEBEB"/>
<path d="M184.623 323.99H107.805V324.195H184.623V323.99Z" fill="#EBEBEB"/>
<path d="M195.488 276.996H37.1461C35.9043 276.996 34.7133 276.502 33.8353 275.624C32.9572 274.746 32.4639 273.555 32.4639 272.313V49.7408C32.4747 48.5061 32.9727 47.3257 33.8497 46.4565C34.7266 45.5872 35.9113 45.0996 37.1461 45.0996H195.488C196.103 45.0996 196.712 45.2207 197.28 45.456C197.848 45.6913 198.364 46.0362 198.799 46.471C199.234 46.9058 199.579 47.4219 199.814 47.99C200.049 48.5581 200.17 49.1669 200.17 49.7818V272.313C200.17 272.928 200.049 273.537 199.814 274.105C199.579 274.673 199.234 275.189 198.799 275.624C198.364 276.059 197.848 276.404 197.28 276.639C196.712 276.874 196.103 276.996 195.488 276.996ZM37.1461 45.2636C35.9593 45.2658 34.8218 45.7382 33.9826 46.5773C33.1434 47.4165 32.671 48.554 32.6689 49.7408V272.313C32.671 273.5 33.1434 274.638 33.9826 275.477C34.8218 276.316 35.9593 276.788 37.1461 276.791H195.488C196.675 276.788 197.812 276.316 198.652 275.477C199.491 274.638 199.963 273.5 199.965 272.313V49.7408C199.963 48.554 199.491 47.4165 198.652 46.5773C197.812 45.7382 196.675 45.2658 195.488 45.2636H37.1461Z" fill="#EBEBEB"/>
<path d="M372.854 276.996H214.512C213.27 276.996 212.079 276.502 211.201 275.624C210.323 274.746 209.83 273.555 209.83 272.313V49.7408C209.84 48.5061 210.338 47.3257 211.215 46.4565C212.092 45.5872 213.277 45.0996 214.512 45.0996H372.854C374.096 45.0996 375.287 45.5929 376.165 46.471C377.043 47.3491 377.536 48.54 377.536 49.7818V272.313C377.536 273.555 377.043 274.746 376.165 275.624C375.287 276.502 374.096 276.996 372.854 276.996ZM214.512 45.2636C213.325 45.2658 212.188 45.7382 211.348 46.5773C210.509 47.4165 210.037 48.554 210.035 49.7408V272.313C210.037 273.5 210.509 274.638 211.348 275.477C212.188 276.316 213.325 276.788 214.512 276.791H372.854C374.041 276.788 375.178 276.316 376.017 275.477C376.856 274.638 377.329 273.5 377.331 272.313V49.7408C377.329 48.554 376.856 47.4165 376.017 46.5773C375.178 45.7382 374.041 45.2658 372.854 45.2636H214.512Z" fill="#EBEBEB"/>
<path d="M410 313.567H0V313.772H410V313.567Z" fill="#EBEBEB"/>
<path d="M205 347.442C292.808 347.442 363.99 343.286 363.99 338.159C363.99 333.033 292.808 328.877 205 328.877C117.192 328.877 46.0103 333.033 46.0103 338.159C46.0103 343.286 117.192 347.442 205 347.442Z" fill="#F5F5F5"/>
<path d="M303.4 76.5879H236.398C234.707 76.5922 233.087 77.2657 231.891 78.4612C230.696 79.6567 230.022 81.2768 230.018 82.9675V118.334C230.025 120.022 230.698 121.639 231.891 122.832C233.085 124.026 234.702 124.699 236.389 124.705H238.849L236.512 129.437C235.414 132.102 236.824 131.192 241.523 129.634L255.799 124.714H303.359C305.045 124.709 306.661 124.038 307.854 122.845C309.046 121.653 309.718 120.037 309.722 118.35V82.9593C309.718 81.2793 309.052 79.6686 307.869 78.476C306.685 77.2835 305.08 76.6051 303.4 76.5879Z" fill="#5A52FF"/>
<g opacity="0.6">
<path d="M303.4 76.5879H236.398C234.707 76.5922 233.087 77.2657 231.891 78.4612C230.696 79.6567 230.022 81.2768 230.018 82.9675V118.334C230.025 120.022 230.698 121.639 231.891 122.832C233.085 124.026 234.702 124.699 236.389 124.705H238.849L236.512 129.437C235.414 132.102 236.824 131.192 241.523 129.634L255.799 124.714H303.359C305.045 124.709 306.661 124.038 307.854 122.845C309.046 121.653 309.718 120.037 309.722 118.35V82.9593C309.718 81.2793 309.052 79.6686 307.869 78.476C306.685 77.2835 305.08 76.6051 303.4 76.5879Z" fill="white"/>
</g>
<path d="M251.806 98.6299V110.11H249.132L244.065 104.001V110.11H240.883V98.6299H243.54L248.608 104.747V98.6299H251.806Z" fill="#263238"/>
<path d="M263.31 107.6V110.101H254.093V98.6211H263.113V101.13H257.324V103.065H262.4V105.525H257.299V107.625L263.31 107.6Z" fill="#263238"/>
<path d="M282.941 98.6299L279.218 110.11H275.749L273.552 103.132L271.256 110.11H267.779L264.064 98.6299H267.402L269.714 105.961L272.174 98.6299H275.159L277.471 106.01L279.874 98.6299H282.941Z" fill="#263238"/>
<path d="M283.302 109.06L284.368 106.674C285.501 107.395 286.813 107.787 288.156 107.805C289.493 107.805 290.018 107.428 290.018 106.87C290.018 105.05 283.499 106.378 283.499 102.114C283.499 100.064 285.139 98.3917 288.583 98.3917C290.031 98.3692 291.461 98.7133 292.74 99.3921L291.74 101.803C290.771 101.251 289.681 100.947 288.566 100.917C287.205 100.917 286.713 101.376 286.713 101.95C286.713 103.705 293.216 102.393 293.216 106.624C293.216 108.617 291.576 110.323 288.14 110.323C286.44 110.366 284.763 109.928 283.302 109.06Z" fill="#263238"/>
<path d="M246.459 94.3818V95.3412H240.892V87.666H246.304V88.6172H241.99V91.0198H245.836V91.9464H241.99V94.4064L246.459 94.3818Z" fill="#263238"/>
<path d="M252.97 95.3412L250.666 92.1678L248.395 95.3412H247.14L250.018 91.4052L247.312 87.666H248.559L250.707 90.6098L252.839 87.666H254.028L251.322 91.3724L254.225 95.3412H252.97Z" fill="#263238"/>
<path d="M254.618 91.504C254.612 90.9717 254.715 90.4437 254.921 89.9529C255.127 89.462 255.432 89.0187 255.816 88.6504C256.201 88.2822 256.657 87.9968 257.156 87.812C257.655 87.6272 258.187 87.5469 258.718 87.5762C259.262 87.5553 259.804 87.6514 260.308 87.8579C260.812 88.0645 261.265 88.3766 261.638 88.7734L260.924 89.4622C260.65 89.1658 260.316 88.9313 259.944 88.7743C259.572 88.6173 259.171 88.5415 258.768 88.552C258.367 88.5309 257.967 88.5915 257.591 88.7301C257.215 88.8687 256.871 89.0824 256.58 89.3582C256.29 89.634 256.058 89.9662 255.9 90.3344C255.742 90.7026 255.66 91.0991 255.66 91.4999C255.66 91.9006 255.742 92.2972 255.9 92.6654C256.058 93.0336 256.29 93.3657 256.58 93.6415C256.871 93.9174 257.215 94.1311 257.591 94.2697C257.967 94.4083 258.367 94.4689 258.768 94.4478C259.172 94.4566 259.573 94.3793 259.945 94.221C260.317 94.0626 260.651 93.8268 260.924 93.5294L261.638 94.2182C261.266 94.6183 260.811 94.9333 260.306 95.1413C259.801 95.3494 259.256 95.4457 258.71 95.4236C258.18 95.4528 257.649 95.3728 257.151 95.1884C256.652 95.004 256.197 94.7193 255.814 94.3517C255.43 93.9842 255.126 93.5418 254.92 93.052C254.715 92.5621 254.612 92.0352 254.618 91.504Z" fill="#263238"/>
<path d="M263.171 87.666H264.27V95.3412H263.171V87.666Z" fill="#263238"/>
<path d="M268.091 88.6172H265.458V87.666H271.805V88.6172H269.173V95.3412H268.091V88.6172Z" fill="#263238"/>
<path d="M273.003 87.666H274.102V95.3412H273.003V87.666Z" fill="#263238"/>
<path d="M282.998 87.666V95.3412H282.08L277.48 89.6012V95.3412H276.381V87.666H277.283L281.883 93.406V87.666H282.998Z" fill="#263238"/>
<path d="M290.616 91.455H291.666V94.448C290.841 95.1006 289.815 95.4456 288.763 95.4238C288.233 95.448 287.703 95.3645 287.206 95.1783C286.709 94.992 286.254 94.7069 285.87 94.3402C285.486 93.9734 285.181 93.5327 284.972 93.0445C284.763 92.5564 284.656 92.031 284.656 91.5001C284.656 90.9692 284.763 90.4438 284.972 89.9556C285.181 89.4675 285.486 89.0267 285.87 88.66C286.254 88.2932 286.709 88.0081 287.206 87.8219C287.703 87.6356 288.233 87.5521 288.763 87.5764C289.31 87.553 289.856 87.6471 290.364 87.8522C290.871 88.0572 291.329 88.3686 291.707 88.7654L291.026 89.4378C290.734 89.1484 290.387 88.9209 290.005 88.7687C289.623 88.6165 289.215 88.5429 288.804 88.5522C288.404 88.531 288.003 88.5916 287.627 88.7303C287.251 88.8689 286.908 89.0826 286.617 89.3584C286.326 89.6342 286.095 89.9663 285.936 90.3345C285.778 90.7027 285.696 91.0993 285.696 91.5001C285.696 91.9008 285.778 92.2974 285.936 92.6656C286.095 93.0338 286.326 93.3659 286.617 93.6417C286.908 93.9175 287.251 94.1313 287.627 94.2699C288.003 94.4085 288.404 94.4691 288.804 94.448C289.438 94.4609 290.061 94.29 290.6 93.956L290.616 91.455Z" fill="#263238"/>
<path d="M295.323 107.88C295.365 107.614 295.461 107.36 295.604 107.133C295.747 106.906 295.934 106.709 296.155 106.556C296.375 106.403 296.624 106.296 296.887 106.242C297.15 106.187 297.422 106.187 297.685 106.24C298.209 106.325 298.678 106.616 298.987 107.047C299.297 107.479 299.423 108.016 299.337 108.54C299.251 109.064 298.961 109.532 298.529 109.842C298.098 110.152 297.561 110.278 297.037 110.192C296.771 110.156 296.515 110.067 296.284 109.931C296.053 109.794 295.852 109.613 295.692 109.397C295.533 109.182 295.418 108.936 295.354 108.676C295.291 108.415 295.28 108.144 295.323 107.88ZM298.816 88.1094L302.31 88.6752L299.3 103.361L296.955 102.984L298.816 88.1094Z" fill="#263238"/>
<path d="M299.817 114.078H239.85V116.391H299.817V114.078Z" fill="#5A52FF"/>
<path d="M226.853 128.979C225.951 124.001 221.31 108.725 221.31 108.725C221.31 108.725 218.432 108.019 217.653 108.987L219.244 132.021L226.853 128.979Z" fill="#CE7A63"/>
<path d="M215.455 103.46L222.786 103.69C222.835 104.182 222.614 106.059 221.334 109.085L217.644 108.954L215.455 103.944L215.373 103.714L215.455 103.46Z" fill="#CE7A63"/>
<path d="M220.621 98.7363L217.054 98.9413C216.673 98.9609 216.312 99.1207 216.041 99.3901C215.77 99.6595 215.608 100.019 215.586 100.401L215.381 103.747L222.761 103.689L222.22 100.04C222.157 99.666 221.96 99.3275 221.666 99.0877C221.372 98.8479 221 98.723 220.621 98.7363Z" fill="#CE7A63"/>
<path d="M211.167 134.891L219.178 130.208L226.558 127.388L226.861 128.978C227.166 130.568 227.008 132.212 226.406 133.715C225.804 135.218 224.784 136.517 223.467 137.457L213.676 144.435L211.167 134.891Z" fill="#CE7A63"/>
<path d="M203.303 147.248C208.952 148.421 220.58 142.681 220.58 142.681L218.751 130.504C213.659 132.644 207.64 133.062 202.827 135.777C198.514 138.302 197.144 145.961 203.303 147.248Z" fill="#5A52FF"/>
<path opacity="0.4" d="M203.303 147.248C208.952 148.421 220.58 142.681 220.58 142.681L218.751 130.504C213.659 132.644 207.64 133.062 202.827 135.777C198.514 138.302 197.144 145.961 203.303 147.248Z" fill="black"/>
<path d="M175.316 133.948C174.404 134.019 173.557 134.449 172.962 135.144C172.367 135.839 172.072 136.742 172.142 137.654C172.142 137.654 172.142 137.72 172.142 137.752C172.142 137.785 170.552 163.033 170.183 167.067C169.363 176.53 167.723 186.518 167.723 188.986H200.58C207.468 164.066 207.468 147.543 206.279 140.663C206.099 139.591 205.619 138.591 204.893 137.781C204.167 136.971 203.226 136.384 202.179 136.088C200.974 135.76 199.53 135.391 197.997 135.071C197.456 134.997 196.915 134.866 196.357 134.776C191.813 134.167 187.238 133.819 182.655 133.734C181.786 133.734 180.908 133.734 180.047 133.734C178.325 133.751 176.677 133.849 175.316 133.948Z" fill="#5A52FF"/>
<path opacity="0.4" d="M175.316 133.948C174.404 134.019 173.557 134.449 172.962 135.144C172.367 135.839 172.072 136.742 172.142 137.654C172.142 137.654 172.142 137.72 172.142 137.752C172.142 137.785 170.552 163.033 170.183 167.067C169.363 176.53 167.723 186.518 167.723 188.986H200.58C207.468 164.066 207.468 147.543 206.279 140.663C206.099 139.591 205.619 138.591 204.893 137.781C204.167 136.971 203.226 136.384 202.179 136.088C200.974 135.76 199.53 135.391 197.997 135.071C197.456 134.997 196.915 134.866 196.357 134.776C191.813 134.167 187.238 133.819 182.655 133.734C181.786 133.734 180.908 133.734 180.047 133.734C178.325 133.751 176.677 133.849 175.316 133.948Z" fill="black"/>
<path d="M194.078 334.191H201.064L201.359 318.029H194.373L194.078 334.191Z" fill="#CE7A63"/>
<path d="M200.998 333.388H193.356C193.22 333.387 193.088 333.435 192.983 333.522C192.878 333.608 192.807 333.729 192.782 333.863L191.552 340.046C191.501 340.318 191.558 340.598 191.711 340.828C191.865 341.058 192.102 341.219 192.372 341.276H192.569C195.316 341.219 199.293 341.063 202.753 341.063C206.796 341.063 207.124 341.284 211.855 341.284C214.725 341.284 215.447 338.39 214.241 338.127C208.755 336.93 207.452 336.799 202.671 333.88C202.167 333.571 201.59 333.401 200.998 333.388Z" fill="#263238"/>
<path opacity="0.2" d="M201.359 318.037L201.212 326.368H194.225L194.373 318.037H201.359Z" fill="black"/>
<path d="M201.925 333.158C201.899 333.153 201.874 333.143 201.853 333.127C201.832 333.112 201.814 333.091 201.802 333.068C201.786 333.029 201.785 332.986 201.799 332.947C201.813 332.908 201.84 332.875 201.876 332.855C202.187 332.691 204.926 331.28 205.762 331.756C205.842 331.797 205.909 331.857 205.958 331.932C206.007 332.007 206.036 332.093 206.041 332.182C206.07 332.332 206.059 332.487 206.009 332.631C205.958 332.775 205.871 332.903 205.754 333.002C205.273 333.329 204.694 333.479 204.114 333.429C203.378 333.406 202.645 333.315 201.925 333.158ZM202.433 332.92C203.958 333.183 205.09 333.117 205.5 332.74C205.573 332.673 205.627 332.59 205.659 332.496C205.691 332.403 205.698 332.304 205.68 332.207C205.681 332.172 205.672 332.138 205.655 332.107C205.637 332.077 205.612 332.052 205.582 332.035C205.483 331.995 205.377 331.976 205.27 331.977C204.277 332.126 203.318 332.445 202.433 332.92Z" fill="#5A52FF"/>
<path d="M201.827 333.15C201.785 333.109 201.762 333.053 201.761 332.994C201.761 332.92 201.925 331.067 202.762 330.346C202.884 330.241 203.026 330.162 203.18 330.114C203.334 330.067 203.495 330.05 203.655 330.067C204.106 330.116 204.279 330.346 204.279 330.526C204.418 331.305 202.827 332.789 201.999 333.166H201.925L201.827 333.15ZM202.983 330.608C202.495 331.213 202.208 331.956 202.163 332.732C202.983 332.215 204.082 331.092 204 330.592C204 330.551 204 330.403 203.672 330.403H203.573C203.357 330.391 203.145 330.464 202.983 330.608Z" fill="#5A52FF"/>
<path d="M201.334 186.206L204.27 270.436L203.852 320.407C203.875 321.059 203.642 321.695 203.205 322.178C202.767 322.662 202.158 322.956 201.507 322.998H193.2C192.58 322.968 191.995 322.704 191.562 322.26C191.128 321.816 190.879 321.224 190.863 320.604C189.871 309.395 185.943 291.617 187.673 270.666C187.673 270.666 180.556 220.179 180.195 203.426L181.54 186.206H201.334Z" fill="#5A52FF"/>
<path opacity="0.2" d="M185.468 207.379C185.468 207.379 186.394 221.196 184.065 243.656C184.065 243.656 182.04 227.141 180.925 218.105L185.468 207.379Z" fill="black"/>
<path d="M143.024 328.73L149.691 330.813L154.791 315.471L148.125 313.396L143.024 328.73Z" fill="#CE7A63"/>
<path d="M149.863 330.026L142.573 327.746C142.443 327.707 142.303 327.715 142.178 327.767C142.052 327.819 141.949 327.913 141.885 328.033L138.859 333.568C138.73 333.816 138.704 334.104 138.785 334.37C138.866 334.637 139.049 334.861 139.293 334.995C139.353 335.028 139.416 335.053 139.482 335.069C142.114 335.84 145.96 336.873 149.265 337.906C153.119 339.103 153.365 339.415 157.891 340.825C160.622 341.645 162.18 339.136 161.105 338.521C156.185 335.749 155.021 335.241 151.323 331.026C150.935 330.567 150.431 330.222 149.863 330.026Z" fill="#263238"/>
<path opacity="0.2" d="M154.791 315.479L151.823 324.393L145.156 322.31L148.125 313.396L154.791 315.479Z" fill="black"/>
<path d="M150.822 330.083C150.798 330.072 150.777 330.055 150.761 330.033C150.745 330.012 150.735 329.986 150.732 329.96C150.729 329.939 150.729 329.918 150.734 329.898C150.739 329.878 150.748 329.859 150.76 329.842C150.772 329.825 150.787 329.811 150.805 329.8C150.823 329.79 150.843 329.783 150.863 329.78C151.208 329.714 154.242 329.189 154.898 329.894C154.962 329.957 155.008 330.036 155.033 330.122C155.057 330.208 155.059 330.299 155.037 330.386C155.016 330.532 154.958 330.67 154.869 330.788C154.78 330.905 154.663 330.998 154.529 331.059C153.961 331.222 153.355 331.19 152.807 330.969C152.121 330.732 151.456 330.436 150.822 330.083ZM151.372 330.009C152.758 330.714 153.832 330.985 154.357 330.747C154.445 330.706 154.522 330.643 154.579 330.564C154.636 330.485 154.673 330.393 154.685 330.296C154.702 330.266 154.711 330.232 154.711 330.198C154.711 330.163 154.702 330.129 154.685 330.099C154.601 330.034 154.507 329.984 154.406 329.952C153.399 329.798 152.372 329.817 151.372 330.009Z" fill="#5A52FF"/>
<path d="M150.732 330.043C150.72 330.017 150.714 329.989 150.714 329.961C150.714 329.932 150.72 329.904 150.732 329.879C150.732 329.813 151.47 328.091 152.479 327.648C152.627 327.581 152.788 327.547 152.95 327.547C153.113 327.547 153.274 327.581 153.422 327.648C153.84 327.82 153.93 328.091 153.873 328.263C153.774 329.083 151.815 329.993 150.904 330.1H150.847C150.803 330.094 150.763 330.074 150.732 330.043ZM152.585 327.96C151.939 328.393 151.441 329.014 151.159 329.739C152.11 329.501 153.496 328.706 153.553 328.247C153.553 328.206 153.553 328.058 153.291 327.976H153.2C153 327.904 152.779 327.913 152.585 328.001V327.96Z" fill="#5A52FF"/>
<path d="M191.388 186.296L173.84 272.642L156.923 321.326C156.839 321.618 156.696 321.889 156.503 322.123C156.31 322.358 156.07 322.549 155.799 322.687C155.529 322.825 155.232 322.905 154.929 322.924C154.626 322.942 154.322 322.898 154.037 322.794L145.37 319.612C144.806 319.347 144.352 318.892 144.089 318.328C143.825 317.763 143.768 317.123 143.926 316.521C146.386 305.861 148.494 288.116 156.612 269.781C156.612 269.781 161.458 214.48 167.969 186.141L191.388 186.296Z" fill="#5A52FF"/>
<path d="M186.845 169.314C186.845 169.314 174.882 177.695 169.297 172.291L168.863 176.498C168.863 176.498 174.603 181.828 190.068 171.881L186.845 169.314Z" fill="#263238"/>
<g opacity="0.1">
<path d="M186.845 169.314C186.845 169.314 174.882 177.695 169.297 172.291L168.863 176.498C168.863 176.498 174.603 181.828 190.068 171.881L186.845 169.314Z" fill="white"/>
</g>
<path d="M198.809 135.112C198.809 135.112 201.269 138.581 198.809 144.288L201.777 145.928C203.152 143.109 203.555 139.915 202.925 136.843C202.878 136.568 202.75 136.313 202.557 136.112C202.364 135.91 202.116 135.77 201.843 135.711L198.809 135.112Z" fill="#263238"/>
<path opacity="0.1" d="M198.809 135.112C198.809 135.112 201.269 138.581 198.809 144.288L201.777 145.928C203.152 143.109 203.555 139.915 202.925 136.843C202.878 136.568 202.75 136.313 202.557 136.112C202.364 135.91 202.116 135.77 201.843 135.711L198.809 135.112Z" fill="white"/>
<path d="M186.96 170.56C186.638 170.35 186.372 170.063 186.188 169.726C186.003 169.388 185.905 169.01 185.902 168.625C185.902 165.804 186.214 158.785 189.945 153.045C192.077 149.599 194.658 146.453 197.62 143.689C197.875 143.467 198.18 143.311 198.508 143.232C198.836 143.154 199.179 143.156 199.506 143.238L201.146 143.639C201.527 143.733 201.87 143.94 202.131 144.232C202.392 144.525 202.557 144.89 202.606 145.279C202.991 147.961 203.623 154.357 202.114 160.441C200.605 166.526 194.455 170.79 191.806 172.331C191.449 172.538 191.042 172.642 190.63 172.632C190.217 172.622 189.816 172.498 189.469 172.274L186.96 170.56Z" fill="#263238"/>
<path d="M198.784 147.125L200.974 148.158C201.436 148.376 201.824 148.726 202.088 149.164C202.352 149.601 202.481 150.107 202.458 150.618C202.305 154.124 201.551 157.577 200.227 160.827C199.117 163.308 197.551 165.558 195.611 167.461C195.208 167.855 194.688 168.108 194.129 168.182C193.571 168.256 193.003 168.147 192.511 167.871L190.289 166.616L198.784 147.125Z" fill="#263238"/>
<path opacity="0.2" d="M198.784 147.125L200.974 148.158C201.436 148.376 201.824 148.726 202.088 149.164C202.352 149.601 202.481 150.107 202.458 150.618C202.305 154.124 201.551 157.577 200.227 160.827C199.117 163.308 197.551 165.558 195.611 167.461C195.208 167.855 194.688 168.108 194.129 168.182C193.571 168.256 193.003 168.147 192.511 167.871L190.289 166.616L198.784 147.125Z" fill="white"/>
<path d="M187.829 166.124C187.829 166.124 194.348 154.734 197.735 145.829L199.859 146.903L198.087 157.563C197.95 158.389 197.586 159.161 197.038 159.794L190.42 167.412L187.829 166.124Z" fill="#263238"/>
<path opacity="0.1" d="M187.829 166.124C187.829 166.124 194.348 154.734 197.735 145.829L199.859 146.903L198.087 157.563C197.95 158.389 197.586 159.161 197.038 159.794L190.42 167.412L187.829 166.124Z" fill="white"/>
<path d="M197.12 157.736C197.111 157.902 197.038 158.058 196.915 158.17C196.792 158.282 196.63 158.341 196.464 158.335C196.31 158.312 196.169 158.233 196.07 158.113C195.97 157.993 195.919 157.841 195.925 157.685C195.931 157.53 195.994 157.382 196.103 157.27C196.211 157.158 196.357 157.091 196.513 157.08C196.68 157.089 196.836 157.162 196.95 157.285C197.063 157.407 197.124 157.569 197.12 157.736Z" fill="#263238"/>
<path d="M185.123 118.4C185.664 122.869 185.943 131.004 182.663 133.726C189.338 139.761 189.649 142.697 194.192 142.476C196.332 142.246 196.652 136.08 195.939 134.579C191.65 133.193 191.921 129.561 193.028 126.199L185.123 118.4Z" fill="#CE7A63"/>
<path opacity="0.2" d="M188.321 121.582L192.987 126.182C192.716 126.963 192.515 127.768 192.388 128.585C190.527 128.183 188.1 125.928 188.051 123.944C187.992 123.146 188.084 122.345 188.321 121.582Z" fill="black"/>
<path d="M202.228 108.142C205.123 108.683 206.008 113.94 202.458 117.687C198.907 121.434 198.325 107.421 202.228 108.142Z" fill="#263238"/>
<path d="M187.214 110.504C186.017 116.375 185.025 119.754 187.14 123.493C190.33 129.134 198.178 128.413 201.08 123.017C203.713 118.155 205.238 109.364 200.187 105.551C198.462 104.233 196.285 103.653 194.133 103.937C191.981 104.221 190.03 105.347 188.707 107.068C187.946 108.08 187.435 109.257 187.214 110.504Z" fill="#CE7A63"/>
<path d="M199.014 122.402C199.014 122.402 197.284 121.311 191.979 119.581C191.979 121.5 192.659 123.255 195.382 124.148C196.052 124.411 196.799 124.401 197.461 124.119C198.124 123.836 198.649 123.305 198.924 122.64C198.957 122.558 198.99 122.484 199.014 122.402Z" fill="#263238"/>
<path d="M194.611 122.369C195.679 122.653 196.621 123.288 197.284 124.173C196.667 124.36 196.006 124.346 195.398 124.132C194.33 123.852 193.389 123.215 192.733 122.328C193.346 122.132 194.007 122.146 194.611 122.369Z" fill="#BA4D3C"/>
<path d="M198.793 122.279C198.671 122.465 198.502 122.617 198.304 122.717C198.105 122.818 197.884 122.865 197.661 122.853C196.089 122.33 194.566 121.669 193.11 120.877C192.869 120.764 192.66 120.591 192.505 120.374C192.35 120.157 192.253 119.904 192.225 119.639C194.483 120.335 196.68 121.218 198.793 122.279Z" fill="#FAFAFA"/>
<path d="M192.7 111.684C192.474 112.265 192.087 112.77 191.585 113.138C191.082 113.507 190.485 113.725 189.863 113.767C189.119 114.996 188.884 116.467 189.207 117.867L187.009 118.031C187.071 117.153 186.796 116.284 186.24 115.602C185.684 114.919 184.889 114.474 184.016 114.357C184.486 116.768 185.06 119.152 185.738 121.508C183.467 119.404 181.773 116.753 180.818 113.808C180.316 112.401 180.126 110.901 180.261 109.413C180.331 108.67 180.549 107.949 180.901 107.292C181.253 106.635 181.732 106.054 182.311 105.583C183.125 105.05 184.054 104.717 185.022 104.611C185.989 104.506 186.968 104.631 187.879 104.977C191.191 106.043 194.34 107.929 192.7 111.684Z" fill="#263238"/>
<path d="M182.918 114.907C182.963 116.414 183.599 117.842 184.689 118.884C186.148 120.245 187.797 119.171 188.157 117.31C188.485 115.67 188.116 112.914 186.288 112.258C184.459 111.602 182.86 113.062 182.918 114.907Z" fill="#CE7A63"/>
<path d="M195.103 114.751C194.971 115.219 195.103 115.67 195.431 115.752C195.759 115.834 196.087 115.522 196.251 115.046C196.415 114.571 196.251 114.128 195.923 114.046C195.595 113.964 195.226 114.284 195.103 114.751Z" fill="#263238"/>
<path d="M201.179 115.907C201.047 116.383 201.179 116.826 201.507 116.916C201.835 117.006 202.163 116.678 202.327 116.203C202.491 115.727 202.327 115.292 201.999 115.21C201.671 115.128 201.318 115.44 201.179 115.907Z" fill="#263238"/>
<path d="M199.104 115.678C199.284 117.265 199.678 118.821 200.277 120.303C199.893 120.445 199.483 120.502 199.075 120.469C198.667 120.436 198.271 120.315 197.915 120.114L199.104 115.678Z" fill="#BA4D3C"/>
<path d="M194.922 112.168C194.966 112.196 195.017 112.212 195.07 112.212C195.122 112.212 195.173 112.196 195.217 112.168C195.496 111.942 195.823 111.784 196.173 111.707C196.524 111.63 196.887 111.636 197.234 111.725C197.273 111.739 197.314 111.744 197.355 111.741C197.396 111.738 197.436 111.727 197.472 111.708C197.509 111.688 197.541 111.662 197.566 111.629C197.591 111.597 197.61 111.56 197.62 111.52V111.463C197.644 111.393 197.641 111.317 197.61 111.249C197.58 111.182 197.524 111.129 197.456 111.102C197.02 110.976 196.559 110.959 196.115 111.052C195.67 111.145 195.255 111.345 194.906 111.635C194.876 111.657 194.851 111.684 194.831 111.716C194.812 111.748 194.8 111.783 194.794 111.82C194.789 111.856 194.791 111.894 194.8 111.929C194.81 111.965 194.826 111.999 194.848 112.028C194.859 112.081 194.885 112.129 194.922 112.168Z" fill="#263238"/>
<path d="M203.934 113.98C203.989 114.001 204.05 114.001 204.106 113.98C204.176 113.949 204.231 113.893 204.26 113.823C204.289 113.752 204.289 113.674 204.262 113.603C204.101 113.178 203.841 112.799 203.502 112.496C203.164 112.194 202.758 111.977 202.318 111.864C202.282 111.856 202.244 111.855 202.207 111.862C202.17 111.869 202.134 111.883 202.103 111.903C202.072 111.924 202.045 111.951 202.024 111.982C202.003 112.014 201.989 112.049 201.982 112.086C201.968 112.158 201.982 112.232 202.022 112.293C202.061 112.355 202.124 112.398 202.195 112.414C202.539 112.507 202.856 112.679 203.121 112.917C203.386 113.155 203.591 113.451 203.721 113.783C203.735 113.832 203.762 113.877 203.8 113.912C203.837 113.946 203.884 113.97 203.934 113.98Z" fill="#263238"/>
<path opacity="0.1" d="M176.726 137.227C179.408 136.981 180.457 137.99 182.105 141.729C183.631 145.173 184.049 154.898 184.049 154.898C184.098 160.212 184.803 159.646 179.768 159.769C176.546 159.843 172.446 160.302 172.446 160.302C172.446 160.302 168.707 137.973 176.726 137.227Z" fill="black"/>
<path d="M216.193 154.98L210.576 154.333C210.284 154.304 210.002 154.213 209.747 154.067C209.493 153.921 209.273 153.722 209.101 153.483C208.93 153.245 208.811 152.973 208.753 152.686C208.695 152.398 208.699 152.101 208.764 151.815L211.905 136.498C211.967 136.242 212.12 136.017 212.336 135.866C212.552 135.715 212.815 135.648 213.077 135.678L219.998 136.498C220.29 136.525 220.572 136.615 220.826 136.76C221.081 136.906 221.301 137.104 221.473 137.342C221.644 137.579 221.763 137.851 221.821 138.138C221.879 138.425 221.876 138.721 221.81 139.007L218.94 152.98C218.808 153.592 218.455 154.135 217.949 154.504C217.442 154.873 216.817 155.043 216.193 154.98Z" fill="#5A52FF"/>
<path opacity="0.8" d="M216.193 154.98L210.576 154.333C210.284 154.304 210.002 154.213 209.747 154.067C209.493 153.921 209.273 153.722 209.101 153.483C208.93 153.245 208.811 152.973 208.753 152.686C208.695 152.398 208.699 152.101 208.764 151.815L211.905 136.498C211.967 136.242 212.12 136.017 212.336 135.866C212.552 135.715 212.815 135.648 213.077 135.678L219.998 136.498C220.29 136.525 220.572 136.615 220.826 136.76C221.081 136.906 221.301 137.104 221.473 137.342C221.644 137.579 221.763 137.851 221.821 138.138C221.879 138.425 221.876 138.721 221.81 139.007L218.94 152.98C218.808 153.592 218.455 154.135 217.949 154.504C217.442 154.873 216.817 155.043 216.193 154.98Z" fill="white"/>
<path d="M216.48 155.284L210.863 154.636C210.571 154.609 210.289 154.519 210.034 154.374C209.78 154.228 209.56 154.03 209.388 153.792C209.217 153.555 209.098 153.283 209.04 152.996C208.981 152.709 208.985 152.413 209.051 152.127L212.191 136.801C212.258 136.548 212.413 136.327 212.627 136.176C212.842 136.026 213.103 135.957 213.364 135.981L220.285 136.801C220.576 136.83 220.858 136.921 221.111 137.066C221.365 137.212 221.585 137.411 221.756 137.648C221.927 137.885 222.046 138.156 222.105 138.442C222.164 138.729 222.161 139.025 222.097 139.31L219.194 153.341C219.052 153.938 218.699 154.463 218.201 154.82C217.702 155.178 217.091 155.342 216.48 155.284Z" fill="#263238"/>
<path d="M216.652 146.05C216.584 146.356 216.406 146.627 216.152 146.811C215.899 146.995 215.587 147.08 215.274 147.051C215.128 147.036 214.986 146.99 214.859 146.916C214.731 146.843 214.62 146.743 214.534 146.624C214.447 146.505 214.387 146.369 214.356 146.225C214.325 146.081 214.325 145.932 214.356 145.788C214.423 145.481 214.6 145.21 214.854 145.025C215.108 144.841 215.421 144.756 215.734 144.788C215.88 144.803 216.022 144.849 216.149 144.922C216.277 144.996 216.388 145.095 216.474 145.214C216.561 145.333 216.622 145.469 216.652 145.613C216.683 145.758 216.683 145.906 216.652 146.05Z" fill="white"/>
<path opacity="0.3" d="M214.979 140.795L212.519 140.508C212.381 140.495 212.247 140.453 212.126 140.384C212.005 140.315 211.901 140.221 211.819 140.109C211.738 139.996 211.681 139.867 211.653 139.731C211.626 139.595 211.627 139.454 211.658 139.319L212.175 136.859C212.234 136.593 212.388 136.357 212.609 136.197C212.829 136.037 213.101 135.963 213.372 135.99L215.922 136.285C216.057 136.302 216.186 136.347 216.302 136.417C216.418 136.488 216.518 136.581 216.595 136.693C216.672 136.804 216.725 136.93 216.751 137.064C216.776 137.197 216.773 137.334 216.742 137.466L216.25 139.926C216.173 140.196 216.004 140.431 215.772 140.59C215.54 140.748 215.259 140.821 214.979 140.795Z" fill="white"/>
<path opacity="0.1" d="M214.791 140.565L212.552 140.303C212.418 140.284 212.29 140.239 212.174 140.168C212.059 140.097 211.96 140.004 211.883 139.893C211.806 139.781 211.753 139.656 211.727 139.523C211.701 139.39 211.703 139.254 211.732 139.122L212.191 136.9C212.256 136.613 212.423 136.359 212.662 136.187C212.901 136.015 213.194 135.936 213.487 135.965L215.726 136.219C215.86 136.237 215.99 136.283 216.106 136.355C216.222 136.426 216.322 136.52 216.399 136.632C216.476 136.744 216.529 136.871 216.554 137.005C216.579 137.138 216.577 137.276 216.546 137.408L216.095 139.622C216.03 139.911 215.862 140.167 215.621 140.341C215.381 140.515 215.086 140.594 214.791 140.565Z" fill="white"/>
<path d="M202.359 146.485L208.386 144.427L207.566 152.102C207.566 152.102 202.245 152.643 201.646 149.863V147.51C201.643 147.286 201.711 147.067 201.839 146.883C201.966 146.699 202.149 146.56 202.359 146.485Z" fill="#CE7A63"/>
<path d="M213.142 146.1L212.142 152.405L207.534 152.094L208.386 144.427L213.142 146.1Z" fill="#CE7A63"/>
<path d="M178.276 141.04C178.49 145.706 178.473 150.495 178.621 155.087C178.621 156.235 178.686 157.367 178.76 158.474C178.834 159.581 178.924 160.647 179.039 161.573C179.096 162.024 179.178 162.459 179.228 162.705C179.228 162.828 179.277 162.885 179.228 162.82C179.178 162.754 179.228 162.779 179.162 162.729C179.124 162.665 179.08 162.605 179.031 162.549C178.946 162.443 178.855 162.342 178.76 162.246C178.688 162.17 178.611 162.099 178.531 162.032L178.244 161.803C177.962 161.618 177.663 161.461 177.35 161.335C176.954 161.181 176.536 161.09 176.112 161.065C175.907 161.048 175.701 161.048 175.497 161.065L175.193 161.106H175.07C175.003 161.114 174.937 161.131 174.873 161.155H174.8C174.66 161.221 174.841 161.155 175.005 161.114C175.365 160.975 175.825 160.761 176.333 160.532C178.293 159.572 180.376 158.383 182.45 157.252L188.723 153.75C192.922 151.405 197.153 149.044 201.499 146.854C201.946 146.624 202.461 146.562 202.949 146.681C203.438 146.799 203.867 147.09 204.159 147.499C204.451 147.909 204.585 148.409 204.538 148.91C204.491 149.41 204.265 149.877 203.901 150.224C200.384 153.644 196.71 156.834 192.938 159.933L190.084 162.237L187.165 164.484C185.197 165.985 183.213 167.412 180.974 168.83C180.4 169.183 179.81 169.544 179.088 169.921C178.611 170.165 178.118 170.376 177.612 170.552L177.317 170.642L176.907 170.741L176.669 170.782L176.251 170.831C175.978 170.846 175.704 170.846 175.431 170.831C174.869 170.791 174.316 170.667 173.791 170.462C173.544 170.365 173.303 170.252 173.069 170.126C172.871 170.016 172.68 169.896 172.495 169.765L172.233 169.568L172.028 169.396L171.643 169.035C171.44 168.829 171.251 168.61 171.077 168.379C170.937 168.191 170.814 168.01 170.691 167.822C170.568 167.633 170.503 167.502 170.413 167.338C170.148 166.835 169.918 166.314 169.724 165.78C169.454 164.998 169.229 164.201 169.051 163.394C168.753 162.041 168.536 160.672 168.404 159.294C168.264 157.99 168.158 156.719 168.084 155.448C167.961 152.922 167.928 150.438 167.994 147.961C168.059 145.485 168.19 143.041 168.494 140.532C168.543 139.227 169.108 137.995 170.065 137.107C170.539 136.667 171.095 136.325 171.701 136.1C172.308 135.875 172.952 135.772 173.598 135.796C174.244 135.821 174.879 135.972 175.467 136.242C176.055 136.511 176.583 136.894 177.023 137.368C177.463 137.842 177.805 138.398 178.03 139.004C178.255 139.61 178.358 140.255 178.334 140.901L178.276 141.04Z" fill="#CE7A63"/>
<path d="M169.141 137.441C165.509 141.926 165.788 157.711 165.788 157.711L178.973 157.154C180.475 151.855 181.096 146.345 180.81 140.844C178.694 133.038 173.537 132.021 169.141 137.441Z" fill="#5A52FF"/>
<g opacity="0.3">
<path d="M169.141 137.441C165.509 141.926 165.788 157.711 165.788 157.711L178.973 157.154C180.475 151.855 181.096 146.345 180.81 140.844C178.694 133.038 173.537 132.021 169.141 137.441Z" fill="black"/>
</g>
<path d="M204.18 111.02C204.45 111.058 204.725 111.013 204.97 110.892C205.214 110.771 205.416 110.578 205.549 110.34C205.66 109.988 205.637 109.609 205.486 109.273C205.335 108.938 205.065 108.669 204.729 108.519C205.549 108.388 206.919 107.871 206.837 107.035C206.755 106.199 206.131 105.223 205.295 105.231C205.578 104.921 205.74 104.519 205.752 104.099C205.764 103.68 205.625 103.269 205.361 102.943C205.075 102.628 204.687 102.424 204.265 102.367C203.844 102.31 203.416 102.404 203.056 102.632C203.19 102.12 203.156 101.579 202.958 101.089C202.76 100.598 202.409 100.185 201.958 99.9093C201.487 99.6475 200.947 99.5407 200.412 99.604C199.878 99.6673 199.377 99.8975 198.981 100.262C199.097 99.916 199.141 99.5501 199.112 99.1865C199.082 98.8229 198.98 98.469 198.809 98.1463C198.639 97.8236 198.405 97.5388 198.122 97.309C197.839 97.0793 197.512 96.9094 197.161 96.8097C196.808 96.7506 196.446 96.7654 196.099 96.853C195.752 96.9406 195.427 97.0992 195.144 97.3188C194.861 97.5384 194.627 97.8142 194.456 98.1288C194.285 98.4434 194.181 98.79 194.151 99.1467C194.155 98.3774 193.881 97.6325 193.379 97.0493C192.878 96.4662 192.182 96.084 191.421 95.9733C190.643 95.9371 189.878 96.1786 189.262 96.6549C188.646 97.1311 188.219 97.8109 188.059 98.5727C187.642 98.2714 187.139 98.1148 186.625 98.1266C186.111 98.1384 185.615 98.3182 185.213 98.6383C184.803 98.9886 184.511 99.4571 184.378 99.9797C184.244 100.502 184.275 101.053 184.467 101.557C184.154 101.482 183.826 101.486 183.515 101.567C183.203 101.649 182.916 101.806 182.679 102.025C182.471 102.307 182.33 102.634 182.266 102.979C182.202 103.324 182.217 103.679 182.31 104.017C181.909 104.188 181.568 104.475 181.331 104.842C181.095 105.208 180.973 105.637 180.983 106.073C180.993 106.51 181.133 106.933 181.386 107.288C181.638 107.644 181.992 107.916 182.401 108.068C185.373 109.083 188.618 108.945 191.494 107.683C191.986 107.478 192.183 107.88 192.249 108.413C192.262 108.55 192.301 108.684 192.364 108.806C192.563 109.055 192.826 109.245 193.125 109.355C193.425 109.464 193.748 109.49 194.061 109.429C194.27 109.365 194.451 109.232 194.574 109.052C194.698 108.872 194.757 108.655 194.742 108.437C194.865 108.905 194.742 108.913 195.053 109.257C195.215 109.432 195.41 109.572 195.627 109.669C195.844 109.766 196.078 109.819 196.316 109.823C196.453 109.832 196.59 109.806 196.714 109.749C196.838 109.691 196.946 109.603 197.027 109.493C197.109 109.383 197.162 109.254 197.181 109.118C197.2 108.983 197.184 108.844 197.136 108.716C197.374 109.224 197.292 109.577 197.726 109.938C197.939 110.123 198.195 110.251 198.471 110.308C198.746 110.366 199.032 110.351 199.301 110.266C199.826 110.061 199.686 108.929 199.686 108.929C199.686 108.929 199.752 110.405 201.088 110.454C202.425 110.504 202.22 109.093 202.22 109.093C202.369 109.544 202.591 109.968 202.876 110.348C203.037 110.542 203.236 110.701 203.46 110.817C203.684 110.932 203.928 111.001 204.18 111.02Z" fill="#263238"/>
<path d="M193.963 88.7652C193.746 88.7652 193.537 88.6788 193.383 88.525C193.229 88.3713 193.143 88.1627 193.143 87.9452V82.361C193.143 82.1435 193.229 81.935 193.383 81.7812C193.537 81.6274 193.746 81.541 193.963 81.541C194.181 81.541 194.389 81.6274 194.543 81.7812C194.697 81.935 194.783 82.1435 194.783 82.361V87.9452C194.783 88.1627 194.697 88.3713 194.543 88.525C194.389 88.6788 194.181 88.7652 193.963 88.7652Z" fill="#5A52FF"/>
<path d="M193.963 91.8405C193.746 91.8405 193.537 91.7542 193.383 91.6004C193.229 91.4466 193.143 91.238 193.143 91.0205V90.4137C193.143 90.1963 193.229 89.9877 193.383 89.8339C193.537 89.6801 193.746 89.5938 193.963 89.5938C194.181 89.5938 194.389 89.6801 194.543 89.8339C194.697 89.9877 194.783 90.1963 194.783 90.4137V91.0205C194.783 91.238 194.697 91.4466 194.543 91.6004C194.389 91.7542 194.181 91.8405 193.963 91.8405Z" fill="#5A52FF"/>
<path d="M190.379 92.8898C190.236 92.8889 190.096 92.8506 189.972 92.7787C189.849 92.7068 189.746 92.6037 189.674 92.4798L186.566 87.1088C186.458 86.9196 186.429 86.6949 186.485 86.4843C186.542 86.2736 186.681 86.0941 186.87 85.9854C187.059 85.8767 187.284 85.8475 187.494 85.9044C187.705 85.9613 187.885 86.0996 187.993 86.2888L191.093 91.6598C191.165 91.7847 191.203 91.9264 191.203 92.0706C191.203 92.2148 191.164 92.3565 191.092 92.4812C191.02 92.606 190.916 92.7094 190.791 92.7812C190.665 92.8529 190.524 92.8904 190.379 92.8898Z" fill="#5A52FF"/>
<path d="M197.546 92.8902C197.403 92.8894 197.262 92.8508 197.138 92.7785C197.014 92.7062 196.911 92.6026 196.84 92.4781C196.768 92.3536 196.731 92.2125 196.731 92.069C196.731 91.9255 196.769 91.7845 196.841 91.6602L199.957 86.2892C200.065 86.1017 200.243 85.9645 200.452 85.9077C200.661 85.8508 200.884 85.8789 201.072 85.9858C201.166 86.0394 201.248 86.111 201.315 86.1966C201.381 86.2822 201.429 86.38 201.458 86.4844C201.486 86.5888 201.493 86.6978 201.479 86.805C201.465 86.9123 201.43 87.0156 201.375 87.1092L198.259 92.4884C198.186 92.612 198.082 92.7142 197.956 92.7847C197.831 92.8553 197.69 92.8916 197.546 92.8902Z" fill="#5A52FF"/>
<path d="M369.845 55.5146H39.852L39.811 60.6069H369.828L369.845 55.5146Z" fill="#263238"/>
<path opacity="0.5" d="M370.23 55.5146H39.77L39.8766 60.6069H370.033L370.23 55.5146Z" fill="white"/>
<path d="M76.2599 63.4436V54.9402C76.2599 52.3326 72.2173 52.3244 72.2173 54.9402V63.4436C72.2173 66.0512 76.2599 66.0512 76.2599 63.4436Z" fill="#5A52FF"/>
<g opacity="0.4">
<path d="M76.2599 63.4436V54.9402C76.2599 52.3326 72.2173 52.3244 72.2173 54.9402V63.4436C72.2173 66.0512 76.2599 66.0512 76.2599 63.4436Z" fill="black"/>
</g>
<path d="M84.058 98.5722L76.4894 86.2722C76.3068 85.9596 76.0434 85.7018 75.7268 85.526C75.2911 85.247 74.7846 85.0986 74.2672 85.0986C73.7498 85.0986 73.2433 85.247 72.8076 85.526C72.497 85.6931 72.2388 85.9428 72.0614 86.2476L64.4928 98.5476C64.2494 98.9402 64.1157 99.3908 64.1056 99.8526C64.0955 100.314 64.2095 100.77 64.4356 101.173C64.6617 101.576 64.9916 101.911 65.3911 102.143C65.7906 102.375 66.2449 102.495 66.7068 102.492H81.844C82.3038 102.49 82.755 102.366 83.1513 102.133C83.5477 101.9 83.8751 101.566 84.1002 101.165C84.3253 100.764 84.44 100.31 84.4326 99.8505C84.4252 99.3907 84.2959 98.9412 84.058 98.5476V98.5722ZM82.4836 100.286C82.4257 100.406 82.3347 100.507 82.2213 100.576C82.108 100.646 81.9771 100.682 81.844 100.68H66.7068C66.5709 100.68 66.4374 100.644 66.3205 100.574C66.2036 100.505 66.1076 100.405 66.0426 100.286C65.9771 100.173 65.9426 100.044 65.9426 99.9129C65.9426 99.7819 65.9771 99.6533 66.0426 99.5398L73.6112 87.2398C73.6748 87.1277 73.7682 87.0353 73.8811 86.9731C73.994 86.9108 74.122 86.8811 74.2508 86.8872C74.3793 86.8829 74.5066 86.9134 74.6191 86.9755C74.7317 87.0375 74.8254 87.1289 74.8904 87.2398L82.459 99.5398C82.5325 99.6494 82.5738 99.7775 82.5781 99.9094C82.5825 100.041 82.5497 100.172 82.4836 100.286Z" fill="#5A52FF"/>
<path d="M79.3759 100.122H69.1669C68.7755 100.122 68.4 100.278 68.1232 100.554C67.8464 100.831 67.6909 101.207 67.6909 101.598C67.6909 101.99 67.8464 102.365 68.1232 102.642C68.4 102.919 68.7755 103.074 69.1669 103.074H79.3759C79.7674 103.074 80.1428 102.919 80.4196 102.642C80.6964 102.365 80.8519 101.99 80.8519 101.598C80.8519 101.207 80.6964 100.831 80.4196 100.554C80.1428 100.278 79.7674 100.122 79.3759 100.122Z" fill="#5A52FF"/>
<g opacity="0.2">
<path d="M79.3759 100.122H69.1669C68.7755 100.122 68.4 100.278 68.1232 100.554C67.8464 100.831 67.6909 101.207 67.6909 101.598C67.6909 101.99 67.8464 102.365 68.1232 102.642C68.4 102.919 68.7755 103.074 69.1669 103.074H79.3759C79.7674 103.074 80.1428 102.919 80.4196 102.642C80.6964 102.365 80.8519 101.99 80.8519 101.598C80.8519 101.207 80.6964 100.831 80.4196 100.554C80.1428 100.278 79.7674 100.122 79.3759 100.122Z" fill="black"/>
</g>
<path d="M75.7517 85.3782V63.8368C75.7239 63.4633 75.5559 63.1141 75.2814 62.8593C75.0069 62.6045 74.6462 62.4629 74.2716 62.4629C73.8971 62.4629 73.5364 62.6045 73.2619 62.8593C72.9873 63.1141 72.8193 63.4633 72.7915 63.8368V85.3782C72.8193 85.7518 72.9873 86.1009 73.2619 86.3558C73.5364 86.6106 73.8971 86.7522 74.2716 86.7522C74.6462 86.7522 75.0069 86.6106 75.2814 86.3558C75.5559 86.1009 75.7239 85.7518 75.7517 85.3782Z" fill="#5A52FF"/>
<g opacity="0.2">
<path d="M75.7517 85.3782V63.8368C75.7239 63.4633 75.5559 63.1141 75.2814 62.8593C75.0069 62.6045 74.6462 62.4629 74.2716 62.4629C73.8971 62.4629 73.5364 62.6045 73.2619 62.8593C72.9873 63.1141 72.8193 63.4633 72.7915 63.8368V85.3782C72.8193 85.7518 72.9873 86.1009 73.2619 86.3558C73.5364 86.6106 73.8971 86.7522 74.2716 86.7522C74.6462 86.7522 75.0069 86.6106 75.2814 86.3558C75.5559 86.1009 75.7239 85.7518 75.7517 85.3782Z" fill="black"/>
</g>
<path d="M123.148 63.4436V54.9402C123.148 52.3326 119.105 52.3244 119.105 54.9402V63.4436C119.105 66.0512 123.148 66.0512 123.148 63.4436Z" fill="#5A52FF"/>
<g opacity="0.4">
<path d="M123.148 63.4436V54.9402C123.148 52.3326 119.105 52.3244 119.105 54.9402V63.4436C119.105 66.0512 123.148 66.0512 123.148 63.4436Z" fill="black"/>
</g>
<path d="M130.913 98.5722L123.344 86.2722C123.162 85.9596 122.898 85.7018 122.582 85.526C122.146 85.247 121.64 85.0986 121.122 85.0986C120.605 85.0986 120.098 85.247 119.663 85.526C119.352 85.6931 119.094 85.9428 118.916 86.2476L111.348 98.5476C111.104 98.9402 110.971 99.3908 110.961 99.8526C110.951 100.314 111.064 100.77 111.291 101.173C111.517 101.576 111.847 101.911 112.246 102.143C112.646 102.375 113.1 102.495 113.562 102.492H128.74C129.2 102.49 129.651 102.366 130.047 102.133C130.444 101.9 130.771 101.566 130.996 101.165C131.221 100.764 131.336 100.31 131.329 99.8505C131.321 99.3907 131.192 98.9412 130.954 98.5476L130.913 98.5722ZM129.339 100.286C129.281 100.406 129.19 100.507 129.076 100.576C128.963 100.646 128.832 100.682 128.699 100.68H113.562C113.429 100.678 113.3 100.642 113.186 100.574C113.072 100.506 112.978 100.41 112.913 100.294C112.848 100.179 112.815 100.048 112.816 99.9159C112.818 99.7834 112.854 99.6537 112.922 99.5398L120.491 87.2398C120.559 87.1314 120.653 87.042 120.765 86.98C120.877 86.918 121.002 86.8855 121.13 86.8855C121.258 86.8855 121.384 86.918 121.496 86.98C121.608 87.042 121.702 87.1314 121.77 87.2398L129.339 99.5398C129.414 99.6495 129.455 99.7796 129.455 99.9129C129.455 100.046 129.414 100.176 129.339 100.286Z" fill="#5A52FF"/>
<path d="M126.231 100.122H116.022C115.63 100.122 115.255 100.278 114.978 100.554C114.701 100.831 114.546 101.207 114.546 101.598C114.546 101.99 114.701 102.365 114.978 102.642C115.255 102.919 115.63 103.074 116.022 103.074H126.231C126.622 103.074 126.998 102.919 127.275 102.642C127.551 102.365 127.707 101.99 127.707 101.598C127.707 101.207 127.551 100.831 127.275 100.554C126.998 100.278 126.622 100.122 126.231 100.122Z" fill="#5A52FF"/>
<g opacity="0.2">
<path d="M126.231 100.122H116.022C115.63 100.122 115.255 100.278 114.978 100.554C114.701 100.831 114.546 101.207 114.546 101.598C114.546 101.99 114.701 102.365 114.978 102.642C115.255 102.919 115.63 103.074 116.022 103.074H126.231C126.622 103.074 126.998 102.919 127.275 102.642C127.551 102.365 127.707 101.99 127.707 101.598C127.707 101.207 127.551 100.831 127.275 100.554C126.998 100.278 126.622 100.122 126.231 100.122Z" fill="black"/>
</g>
<path d="M122.606 85.3782V63.8368C122.578 63.4633 122.41 63.1141 122.136 62.8593C121.861 62.6045 121.501 62.4629 121.126 62.4629C120.752 62.4629 120.391 62.6045 120.116 62.8593C119.842 63.1141 119.674 63.4633 119.646 63.8368V85.3782C119.674 85.7518 119.842 86.1009 120.116 86.3558C120.391 86.6106 120.752 86.7522 121.126 86.7522C121.501 86.7522 121.861 86.6106 122.136 86.3558C122.41 86.1009 122.578 85.7518 122.606 85.3782Z" fill="#5A52FF"/>
<g opacity="0.2">
<path d="M122.606 85.3782V63.8368C122.578 63.4633 122.41 63.1141 122.136 62.8593C121.861 62.6045 121.501 62.4629 121.126 62.4629C120.752 62.4629 120.391 62.6045 120.116 62.8593C119.842 63.1141 119.674 63.4633 119.646 63.8368V85.3782C119.674 85.7518 119.842 86.1009 120.116 86.3558C120.391 86.6106 120.752 86.7522 121.126 86.7522C121.501 86.7522 121.861 86.6106 122.136 86.3558C122.41 86.1009 122.578 85.7518 122.606 85.3782Z" fill="black"/>
</g>
<path d="M219.145 63.4436V54.9402C219.145 52.3326 215.094 52.3244 215.094 54.9402V63.4436C215.094 66.0512 219.145 66.0512 219.145 63.4436Z" fill="#5A52FF"/>
<g opacity="0.4">
<path d="M219.145 63.4436V54.9402C219.145 52.3326 215.094 52.3244 215.094 54.9402V63.4436C215.094 66.0512 219.145 66.0512 219.145 63.4436Z" fill="black"/>
</g>
<path d="M226.902 98.5722L219.334 86.2722C219.156 85.9559 218.891 85.6969 218.571 85.526C218.135 85.247 217.629 85.0986 217.111 85.0986C216.594 85.0986 216.087 85.247 215.652 85.526C215.341 85.6931 215.083 85.9428 214.906 86.2476L207.345 98.5476C207.099 98.9391 206.963 99.3895 206.952 99.8516C206.94 100.314 207.053 100.77 207.278 101.174C207.504 101.577 207.834 101.913 208.234 102.145C208.634 102.376 209.089 102.496 209.551 102.492H224.68C225.143 102.498 225.599 102.379 226 102.148C226.401 101.916 226.732 101.581 226.959 101.178C227.185 100.774 227.299 100.317 227.288 99.8537C227.276 99.3909 227.14 98.9397 226.894 98.5476L226.902 98.5722ZM225.352 100.286C225.286 100.404 225.19 100.503 225.073 100.572C224.956 100.641 224.824 100.678 224.688 100.68H209.551C209.416 100.68 209.284 100.644 209.168 100.574C209.052 100.505 208.958 100.405 208.895 100.286C208.826 100.174 208.79 100.045 208.79 99.9129C208.79 99.7812 208.826 99.6521 208.895 99.5398L216.464 87.2398C216.528 87.1289 216.622 87.0375 216.735 86.9755C216.847 86.9134 216.975 86.8829 217.103 86.8872C217.233 86.8832 217.361 86.9137 217.475 86.9757C217.589 87.0377 217.684 87.1288 217.751 87.2398L225.311 99.5398C225.387 99.6479 225.432 99.7751 225.439 99.9071C225.446 100.039 225.416 100.17 225.352 100.286Z" fill="#5A52FF"/>
<path d="M222.22 100.122H212.019C211.628 100.122 211.253 100.278 210.976 100.554C210.699 100.831 210.543 101.207 210.543 101.598C210.543 101.99 210.699 102.365 210.976 102.642C211.253 102.919 211.628 103.074 212.019 103.074H222.22C222.612 103.074 222.987 102.919 223.264 102.642C223.541 102.365 223.696 101.99 223.696 101.598C223.696 101.207 223.541 100.831 223.264 100.554C222.987 100.278 222.612 100.122 222.22 100.122Z" fill="#5A52FF"/>
<g opacity="0.2">
<path d="M222.22 100.122H212.019C211.628 100.122 211.253 100.278 210.976 100.554C210.699 100.831 210.543 101.207 210.543 101.598C210.543 101.99 210.699 102.365 210.976 102.642C211.253 102.919 211.628 103.074 212.019 103.074H222.22C222.612 103.074 222.987 102.919 223.264 102.642C223.541 102.365 223.696 101.99 223.696 101.598C223.696 101.207 223.541 100.831 223.264 100.554C222.987 100.278 222.612 100.122 222.22 100.122Z" fill="black"/>
</g>
<path d="M218.604 85.3782V63.8368C218.576 63.4633 218.408 63.1141 218.133 62.8593C217.859 62.6045 217.498 62.4629 217.124 62.4629C216.749 62.4629 216.388 62.6045 216.114 62.8593C215.839 63.1141 215.671 63.4633 215.644 63.8368V85.3782C215.671 85.7518 215.839 86.1009 216.114 86.3558C216.388 86.6106 216.749 86.7522 217.124 86.7522C217.498 86.7522 217.859 86.6106 218.133 86.3558C218.408 86.1009 218.576 85.7518 218.604 85.3782Z" fill="#5A52FF"/>
<g opacity="0.2">
<path d="M218.604 85.3782V63.8368C218.576 63.4633 218.408 63.1141 218.133 62.8593C217.859 62.6045 217.498 62.4629 217.124 62.4629C216.749 62.4629 216.388 62.6045 216.114 62.8593C215.839 63.1141 215.671 63.4633 215.644 63.8368V85.3782C215.671 85.7518 215.839 86.1009 216.114 86.3558C216.388 86.6106 216.749 86.7522 217.124 86.7522C217.498 86.7522 217.859 86.6106 218.133 86.3558C218.408 86.1009 218.576 85.7518 218.604 85.3782Z" fill="black"/>
</g>
</svg>
